/* XPM */
static char *_ff66076c0834deefdd83a5dd30b4416vJRDIKH8R6XzVVgB[] = {
/* columns rows colors chars-per-pixel */
"64 64 219 2 ",
"   c None",
".  c #18191D",
"X  c #130415",
"o  c #360306",
"O  c #380217",
"+  c #291D1C",
"@  c #3A1715",
"#  c #2D0100",
"$  c #3D2615",
"%  c #3D260D",
"&  c #171729",
"*  c #1A1A37",
"=  c #0A003F",
"-  c #35083A",
";  c #2E0A27",
":  c #1F2120",
">  c #232323",
",  c #2D2A28",
"<  c #34302C",
"1  c #460101",
"2  c #4C0201",
"3  c #4E070A",
"4  c #540504",
"5  c #5A0606",
"6  c #540906",
"7  c #5A0806",
"8  c #550A09",
"9  c #5D0909",
"0  c #5D0708",
"q  c #5D1203",
"w  c #58140D",
"e  c #4D1612",
"r  c #5E1D1D",
"t  c #571614",
"y  c #4F0B12",
"u  c #630B0B",
"i  c #6A0E0E",
"p  c #610A07",
"a  c #641403",
"s  c #6B120E",
"d  c #66160B",
"f  c #71190E",
"g  c #620F10",
"h  c #631212",
"j  c #6D1111",
"k  c #641C1B",
"l  c #691E1E",
"z  c #6D1A16",
"x  c #731414",
"c  c #781717",
"v  c #751C1C",
"b  c #7C1A1A",
"n  c #721A17",
"m  c #452718",
"M  c #512618",
"N  c #543011",
"B  c #783C19",
"V  c #6E2D12",
"C  c #4C0B28",
"Z  c #5E2424",
"A  c #572928",
"S  c #453224",
"D  c #563620",
"F  c #433B3C",
"G  c #533131",
"H  c #5C3C3C",
"J  c #5A3535",
"K  c #6C2424",
"L  c #662728",
"P  c #732424",
"I  c #75292A",
"U  c #782926",
"Y  c #693622",
"T  c #633332",
"R  c #623D3B",
"E  c #6B3C3C",
"W  c #6B3535",
"Q  c #733433",
"!  c #783232",
"~  c #733B3B",
"^  c #7B3A26",
"/  c #1E4C1A",
"(  c #2C4217",
")  c #644238",
"_  c #704C34",
"`  c #6B6921",
"'  c #03024D",
"]  c #0C0048",
"[  c #070445",
"{  c #191645",
"}  c #000053",
"|  c #010259",
" . c #0C0759",
".. c #171759",
"X. c #100040",
"o. c #2F0E4B",
"O. c #363556",
"+. c #2F2D4B",
"@. c #010164",
"#. c #00006B",
"$. c #0E066A",
"%. c #181765",
"&. c #000071",
"*. c #08067C",
"=. c #16006B",
"-. c #25046B",
";. c #2A2A61",
":. c #3C3C67",
">. c #2C2C72",
",. c #55274D",
"<. c #543050",
"1. c #433371",
"2. c #444443",
"3. c #4B4945",
"4. c #4C4C4C",
"5. c #45444A",
"6. c #5B4343",
"7. c #544949",
"8. c #52514D",
"9. c #464658",
"0. c #545353",
"q. c #5A5555",
"w. c #5C5C5C",
"e. c #6C4646",
"r. c #664A4A",
"t. c #674848",
"y. c #724545",
"u. c #7D4141",
"i. c #714F4F",
"p. c #685655",
"a. c #735151",
"s. c #715A5A",
"d. c #795959",
"f. c #6F5145",
"g. c #6C655D",
"h. c #64635D",
"j. c #555273",
"k. c #5F6161",
"l. c #636363",
"z. c #6C6C6C",
"x. c #6B6765",
"c. c #716B6A",
"v. c #766464",
"b. c #6C6D76",
"n. c #6F7070",
"m. c #747474",
"M. c #787876",
"N. c #7D7C7C",
"B. c #777275",
"V. c #821D1D",
"C. c #86221E",
"Z. c #852121",
"A. c #8B2525",
"S. c #8E2929",
"D. c #832B2B",
"F. c #922C2C",
"G. c #963030",
"H. c #9B3434",
"J. c #9E3939",
"K. c #A33C3C",
"L. c #A13738",
"P. c #984E1D",
"I. c #874E34",
"U. c #845959",
"Y. c #845F4A",
"T. c #A64242",
"R. c #AB4444",
"E. c #AF4848",
"W. c #B24C4C",
"Q. c #B65151",
"!. c #B95454",
"~. c #BE5959",
"^. c #836047",
"/. c #847575",
"(. c #827D7B",
"). c #916565",
"_. c #C15C5C",
"`. c #C56262",
"'. c #CA6969",
"]. c #D47575",
"[. c #C3982E",
"{. c #00008A",
"}. c #070387",
"|. c #1A1987",
" X c #00009D",
".X c #040494",
"XX c #131398",
"oX c #260583",
"OX c #272694",
"+X c #2B2B88",
"@X c #0000A2",
"#X c #0000AC",
"$X c #0000B4",
"%X c #0000BA",
"&X c #1818A9",
"*X c #515184",
"=X c #7F7F80",
"-X c #0101C3",
";X c #0000CB",
":X c #828181",
">X c #868686",
",X c #848383",
"<X c #898988",
"1X c #8D8D8D",
"2X c #8C8D8D",
"3X c #878887",
"4X c #91908D",
"5X c #929292",
"6X c #949494",
"7X c #9A9A9A",
"8X c #9E9E9E",
"9X c #9A9996",
"0X c #938F8D",
"qX c #A29D9B",
"wX c #A1A29F",
"eX c #A4A4A4",
"rX c gray68",
"tX c #B8B7B7",
"yX c #C8C8C8",
/* pixels */
"          l.                        w.                                                    w.                        l.          ",
"          l.l.                      l.                                                    l.                      l.l.          ",
"          z.z.                    l.m.                                                    m.l.                    z.l.          ",
"          p.z.m.                l.m.:X                                                    :Xm.x.                m.z.l.          ",
"            l.m.                n.N.5X                                                    5XN.n.                m.l.            ",
"            w.z.N.              z.>X8X2X                                                1X8X>Xz.              N.z.w.            ",
"            q.l.m.:X            k.=XeX6X                                                5XeX=Xl.            ,Xm.l.q.            ",
"              w.z.N.3X          q.m.7X7X(.                                            =X7X9Xn.w.          >XN.z.w.              ",
"              0.k.m.:X3X:X      3.h.3X7X2X              j c V.A.A.V.c j               2X7X3Xk.4.      :X<X:Xm.l.0.              ",
"                4.k.M.3X2X3X    2.3.g.(./.v.        j x x x V.A.A.V.c x x j         v./.(.g.3.F     3X2X>XM.w.4.                ",
"                2.0.l.M.3X5X6X<X3.S M t h j j i u j b b x b A.G.G.A.b x V.b j u i i z g t M S 4.<X6X5X3XM.l.0.2.                ",
"                  4.q.l.M.<X7X8X5Xs.r 0 i x b V.i x V.Z.V.V.S.L.H.F.V.V.V.V.x s V.V.c u 0 r d.5X8X7X3XM.x.0.4.                  ",
"                    4.w.x.m.2XeXrXtXqXU.x j x V.c j c A.A.V.Z.G.G.Z.V.A.A.c i c V.c j j U.qXtXrXeX2XM.z.w.4.                    ",
">X:X                2.4.w.z.M.6XeXyXyXyX).u x c b x i x V.x c Z.Z.b b b c i x b c j i ).yXyXtXrX6XM.x.w.4.2.                :X>X",
"  N.:XN.m.            G 8.k.z.b.,X7XrXyXtX! x c c c i u x x j c c j x x u i c c c x ! tXyXtX7X:Xb.z.k.0.G             m.N.:XN.  ",
"    M.<X<X>XN.    j x g A 0.l.z.c.B.,X9XeX~ V.c i i u u j c x j j j c j u u i i c V.~ eX9X(.B.z.z.k.0.A i x j     N.>X<X<XM.    ",
"      z.N.6X5X2XM.e.P x u A 0.g.z.z.z.M.:XQ V.b i u u i i c V.i i V.c i i u u i b V.Q (.B.n.n.z.l.0.A g x K y.B.2X6X6XN.z.      ",
"        l.m.>X7X6X3Xc.~ j u Z <.q.k.k.x.s.P b x i c c x j j x x x x j j x c x j x b P s.x.l.k.q.6.Z i j ~ z.3X6X7X,Xn.l.        ",
"          0.w.m.3X2X=Xs.U i i z L H 6.E v c j u i c c c j u i i j i u j x V.c j u j c P E <.J L n u i P s.=X2X<XB.k.0.          ",
"            J 8.k.b.z.i.Z.9 8 p d s j i j i i i j c c x u 5 5 p p 5 5 i x x x j i i s j s f i i u 8 9 Z.i.z.n.k.8.J             ",
"          j x Z G H E D.b i 0 5 5 u 0 u u u j c b b c x u 5 4 2 4 2 5 u i c V.V.x j i p u u 5 5 5 5 j b D.~ H J Z x j           ",
"        u i b b j u i x j x x 0 5 5 0 u u j x b V.V.V.V.j u 4 2 2 5 u i V.V.V.V.c x j u u 5 5 p 0 x x j x i u j c V.i u         ",
"        u u x b x u 9 0 i i j x x u 5 p p u u j c V.V.V.b u 0 5 5 p u V.V.V.V.c i i u p p 5 u x x j i u 5 0 u j c x u u         ",
"      i x x u u 0 i s i x i u c x p u i u u u u u i x x V.j p 0 5 5 j V.c c i u u u u u i u p c b p i x i j i 0 u u x x j       ",
"      u i x u u i u j b A.c i b V.i x x Z.Z.c i 5 u j c b x i 0 5 i c V.c i u 0 u b Z.V.c x j c b i c A.b i u i u u x i u       ",
"    a 4 4 0 p j b u u x c x b Z.A.V.V.V.A.S.A.x 5 0 i x c c x u u x c b x u 4 5 c C.S.A.V.b V.S.A.c x x x i i V.j p 9 4 4 q     ",
"    q 1 2 4 4 u j 5 p u i b S.G.G.Z.x c A.S.S.c u 0 0 u i j s p u i i i u 5 5 u V.F.F.A.b c Z.G.G.S.V.i u 8 7 i u 5 4 1 2 7     ",
"    8 2 1 1 2 5 5 4 u x A.L.K.K.K.H.V.c Z.F.S.V.j u 5 u p p 0 4 4 5 p 5 5 5 i x b A.F.Z.c b H.T.E.L.G.b i 0 4 7 4 2 1 1 2 8     ",
"    i 9 4 1 1 2 2 4 b G.T.W.Q.!.E.K.F.V.c x c x x i 5 y m % N B B N $ % 8 7 s x x b b c V.F.K.E.Q.W.T.F.C.c 4 2 2 1 1 4 9 g     ",
"  b V.c u 4 2 1 1 u S.L.W.W.E.Q._.E.L.F.Z.c x i c b x w ( / ` [.[.` / ( y x b c x c V.Z.F.L.E.E.R.W.W.L.F.C.i 1 1 1 4 u c C.b   ",
"x b b x i 5 2 1 1 u V.L.T.L.K.T._._._.Q.K.F.V.V.A.F.H.S.Y N ^ P.P.B N I C.A.A.A.S.C.G.R.Q._._.Q.K.L.T.L.C.f u 1 1 1 4 i c b b x ",
"x c c j u u u 4 1 2 i A.F.A.H.T.R._.`._.Q.H.Z.A.H.R.E.W.E.L.F.V.V.F.L.E.W.L.H.G.F.G.K.Q.`.`._.E.H.A.S.A.f a 2 1 1 1 4 9 s x c x ",
"i x i u j Z.Z.n e M d s c b S.J.K.E.W.W.L.S.F.L.E.Q.Q._.`.Q.J.S.S.L.Q.`.~.Q.E.T.H.F.G.R.W.W.E.K.S.b j i p a M e 1 2 4 5 u i j i ",
"u u 0 j A.H.F.v N h.f.z p j b S.L.T.K.G.F.G.K.W.~._.~.`.].'.Q.R.E.W.'.].`.~.`.~.E.J.A.F.J.L.G.Z.c u p w _ g.g.m 1 7 9 6 4 u u u ",
"4 4 8 b G.J.A.g $ l.(.a.h u i b F.H.F.Z.C.F.J.E._.'.`._.'.].!.W.W.Q.].'._.`.`.~.E.L.A.V.A.b j u 8 4 8 r.n.z.l.$ 1 7 u u 4 4 5 4 ",
"q 4 9 Z.F.Z.g @ + 5.M.<Xr.h p 7 i j j i i c V.S.K.Q.~.~.Q.'.R.T.T.T.'.!.~._.Q.T.F.b x j i p 4 4 2 8 r.<Xz.4.2.+ 1 2 7 7 4 1 1 q ",
"q 4 5 j x 5 2 $ . & O.b.M.6.m R T 6 1 4 6 i c c b S.J.K.K.W.J.G.G.H.W.K.J.J.S.b c c i i u w R J e 7.N.b.O.< + o 2 1 2 2 1 1 2 a ",
"2 2 4 0 5 5 8 + : . [ ..;.;.{ b.N.L r 8 4 8 x V.C.C.C.Z.A.G.F.A.S.F.G.A.Z.C.Z.Z.V.c x A K L N.b.{ ..;...[ X # 1 2 2 2 1 1 1 1 4 ",
"5 4 4 u u u A 0., : & } } } ' 9.M.p.n.1.3 6 p f ! y.! V.c b Z.S.A.A.c c b D.~ ! b j C j.B.p.m.9.' } } } [ o 2 w y.L 5 4 4 5 4 5 ",
"0 p i c s d p.4X) > & * ' } ' +.<.9.b.OX- - -.-.<.M.s.D.V.b A.J.L.A.V.b ! v.M.1.oX-.*.+X*XO.0.+.' } } [ O 7 u ^ 2Xp.u p i u p 0 ",
"  u j x j i i.z.Y $ + > * ' }  .@.$.%.XX.X@X@X X>.N.x.<.,.U.d.U.U.d.U.,.,.l.M.+X-X%X#XXX}.&.%. .} ' ' ; 0 i f Y z.i.i i x j u   ",
"  u i u x c K Z w a 3 @ , * | #.#.@.*. X@X$X$X@X%.4.5.|.OXl.k.M.m.l.h.OX|.5.4.|.-X-X$X@X.X{.#.#.| [ O w i s d w A K c j i u i   ",
"    u u b C.V.x x Y V D 8.< [ #.#.@.&..X#X#X%X#X}.|.XX;X-X|.:.n.n.:.|.#X%XXX|.%X;X%X%X#X@X.X#.@.] O w ~ Y V Y x x V.V.b u 0     ",
"    0 p x b V.V.u.,Xs.c.wX_ @ X.| @.&..X$X$X%X$X#X-X;X;X#X#X#X&X&X-X-X%X-X;X;X-X;X-X%X@X@X{. .- 8 s I.wXc.s.,Xu.V.V.b c p u     ",
"      u u u x V.! /.p.z.9X^.8 1 O ] {.@X%X-X-X@X$X;X;X$X@X$X;X;X;X;X;X%X-X;X;X%X%X%X$X@X*.o.g x b z ^.9Xn.l.M.! V.c u p p       ",
"      i u p u c c h A q.z.W 7 a 4 O $.@X%X-X%X@X%X;X-X@X$X;X;X;X;X;X;X%X%X;X;X;X%X$X$X}.C i x f f 9 T c.7.r k x c u p u         ",
"        u i i c x 7 7 z I g x s 7 2 O ] {.$X#X#X$X$X@X@X$X%X%X%X-X%X%X$X$X%X%X%X$X$X#X=.4 0 5 4 f x j l g 5 u x x u i u         ",
"        i u i j x i i i i i i u 0 4 2 o X *.@X@X X X X X@X X@X@X@X@X@X@X@X@X@X X X X=.O 1 2 1 5 u i i u u u u x j j i i         ",
"        u 7 9 u i c i x i W k 0 a 7 7 u 2 X ..*X*X*.}.}.{.{.{.{.{.{.{.{.{.{.*.*X*X- 3 5 u 7 7 a 0 k ~ v j i c j u 9 9 u         ",
"      7 4 2 4 5 p j i j j v i p p 7 5 x s 4 H wX2X9.%.#.&.#.&.&.#.&.&.&.#.%.9.5XrX<.5 j x 7 7 7 0 9 I A.0 5 j 9 5 4 2 4 7       ",
"      0 4 1   4 5 u 0 u x Z.V.j L k 0 u x j i.5X5Xz.< ....:.;.} | %.:...{ F z.5X6Xf.s x u 7 k L i c Z.b u 4 u 0 4   1 4 5       ",
"      6 8 j     4 5 4 8 u c V.A.P e.i.L u 9 r.>X6X=X0.S 3.B.n.O.O.m.B.3.S 8.N.6X>Xf.9 u K a.e.P A.Z.b s 8 4 5 4     h 5 6       ",
"        8 i j u 4 8 i n b j c A.A.b Q r.s.K T n.1X,Xq.t ) <X7XR ) 9X<X) t q.:X2Xn.J K a.e.Q v A.A.c j c x u 8 4 u x i 8         ",
"          8 5 4 2 h E y.I V.c b A.Z.b b I h g 6.c.x.J u T N.,XQ Q ,XM.T p J x.z.6.w z I b b Z.A.c c V.P e.~ h 1 4 4 6           ",
"                  a.>XeXs.n V.j j V.A.F.V.x 0 2 e y u s z l K v b K l z i u y e 2 u s V.F.A.V.x z V.n s.eX3Xa.                  ",
"                  N.2X2Xk.k V.x x V.A.Z.V.V.x 8 2 5 s b V.b b V.V.b V.Z.b x 7 4 8 x V.V.V.A.V.x x V.r k.6X2XN.                  ",
"                  z.m.x.0.t v x b b i u i c V.c i x b C.V.V.c x j c V.Z.Z.b j u x V.c x u i b b j b r 8.x.m.z.                  ",
"                  0.w.4.F k j 9 c j 5 4 5 p 9 b V.V.b x j u 0 8 0 0 u j x b V.Z.b 9 9 8 4 5 j x u i k F 4.w.q.                  ",
"                  4.q.    8 2 2 u j 5 4 4 4 4 8 j b c g 9 5 4 8 5 2 5 9 i c V.j 8 4 4 6 2 5 i i 1 4 8     0.4.                  ",
"                                  j u 4 4 2   2 5 u   4 4 1 2 u u 2 1 4 4   p 5 2   2 4 4 u j                                   ",
"                                    h 8 6 9     4 5 4 4 2   9 j j 9   1 2 8 8 4     9 8 8 i                                     ",
"                                        1 6 9 i i 8 1 1 1   z h h x   1 1 1 5 j j 9 3 1                                         ",
"                                            1 4 4 1 1 1 4 u 9 1 1 9 u 4 1 1 2 2 2 1                                             ",
"                                                      1 1 1 1     1 2 1 1                                                       "
};
