/* XPM */
static char *_924ae917699406aa077f180e7625662tsjhYcLRrAGtoC7q[] = {
/* columns rows colors chars-per-pixel */
"64 64 243 2 ",
"   c #2C1A14",
".  c #281813",
"X  c #341D14",
"o  c #3A1D15",
"O  c #2A150C",
"+  c #2E211C",
"@  c #34241C",
"#  c #3D251C",
"$  c #3D261C",
"%  c #342621",
"&  c #362922",
"*  c #3B2D25",
"=  c #3C2F28",
"-  c #382720",
";  c #3E3027",
":  c #3E3129",
">  c #471D13",
",  c #571E14",
"<  c #42190E",
"1  c #44251B",
"2  c #48271B",
"3  c #532B1D",
"4  c #59271A",
"5  c #5C331E",
"6  c #662A19",
"7  c #752C1A",
"8  c #69351E",
"9  c #76351D",
"0  c #61220F",
"q  c #432C23",
"w  c #4B2D23",
"e  c #5B2E22",
"r  c #532D21",
"t  c #4B3126",
"y  c #43352D",
"u  c #4B352B",
"i  c #46382F",
"p  c #4B392E",
"a  c #433025",
"s  c #533225",
"d  c #5B3324",
"f  c #53342A",
"g  c #53392C",
"h  c #5C392C",
"j  c #453730",
"k  c #463931",
"l  c #4A3D34",
"z  c #4D3F38",
"x  c #533D33",
"c  c #5C3D32",
"v  c #683727",
"b  c #773A25",
"n  c #673E31",
"m  c #6C2F22",
"M  c #4D4037",
"N  c #4E4139",
"B  c #5B4136",
"V  c #52453C",
"C  c #5A453B",
"Z  c #55483F",
"A  c #5B493E",
"S  c #524136",
"D  c #58402D",
"F  c #68422A",
"G  c #784329",
"H  c #6B4335",
"J  c #654739",
"K  c #774A37",
"L  c #735434",
"P  c #564941",
"I  c #5A4D44",
"U  c #5D5047",
"Y  c #5E5148",
"T  c #664E42",
"R  c #62534A",
"E  c #6B5448",
"W  c #785747",
"Q  c #72584D",
"!  c #796659",
"~  c #84361E",
"^  c #94361E",
"/  c #863A23",
"(  c #983C23",
")  c #853E30",
"_  c #864727",
"`  c #884C38",
"'  c #885439",
"]  c #975537",
"[  c #954E29",
"{  c #A64628",
"}  c #A9532D",
"|  c #B6572B",
" . c #AA5C35",
".. c #B75833",
"X. c #AF4F2E",
"o. c #AB6637",
"O. c #B76539",
"+. c #BA713F",
"@. c #976433",
"#. c #CE6E3B",
"$. c #C9592A",
"%. c #865846",
"&. c #985B45",
"*. c #896248",
"=. c #95674A",
"-. c #886858",
";. c #987658",
":. c #967053",
">. c #A66645",
",. c #B96748",
"<. c #A8774B",
"1. c #B97848",
"2. c #B66D51",
"3. c #A7765A",
"4. c #B87A57",
"5. c #A76951",
"6. c #967767",
"7. c #90796C",
"8. c #B67D61",
"9. c #A57D6C",
"0. c #C87849",
"q. c #D47747",
"w. c #C87A56",
"e. c #CF7250",
"r. c #E17747",
"t. c #C98C3C",
"y. c #B78753",
"u. c #998474",
"i. c #A88678",
"p. c #B78A75",
"a. c #B48E6E",
"s. c #BFA66A",
"d. c #CB844B",
"f. c #D58346",
"g. c #C78B58",
"h. c #D88758",
"j. c #DB9557",
"k. c #CC914E",
"l. c #E6894B",
"z. c #E38A59",
"x. c #E59859",
"c. c #F89C56",
"v. c #F0924B",
"b. c #DFA45E",
"n. c #F0AB55",
"m. c #C98767",
"M. c #D78964",
"N. c #D6986B",
"B. c #C89777",
"V. c #D99677",
"C. c #C89467",
"Z. c #E69868",
"A. c #E69B74",
"S. c #E38D63",
"D. c #D8A777",
"F. c #D6B070",
"G. c #E7AA67",
"H. c #F5A86B",
"J. c #E7B46C",
"K. c #F7BA6B",
"L. c #E6A879",
"P. c #F8AB75",
"I. c #E7B878",
"U. c #FCBC7C",
"Y. c #F6B776",
"T. c #FEC555",
"R. c #FEC86B",
"E. c #F9C678",
"W. c #F9D67B",
"Q. c #F2C76B",
"!. c #FCE378",
"~. c #B19887",
"^. c #B9A58F",
"/. c #D49D84",
"(. c #CAA58C",
"). c #D8A687",
"_. c #CAA794",
"`. c #D7B49B",
"'. c #D0AF94",
"]. c #E9A986",
"[. c #E9B785",
"{. c #F7BA88",
"}. c #EBB999",
"|. c #F6BB96",
" X c #F2A988",
".X c #D9BAA8",
"XX c #E5BDA4",
"oX c #DBC293",
"OX c #FCC483",
"+X c #FDCD8B",
"@X c #F8C788",
"#X c #FDD38C",
"$X c #FAD686",
"%X c #FCCC93",
"&X c #F8C79A",
"*X c #FDD493",
"=X c #FDD49A",
"-X c #FEDC9C",
";X c #FADA95",
":X c #ECCD90",
">X c #FDE38B",
",X c #FCE889",
"<X c #FEE594",
"1X c #FEEB94",
"2X c #FEE49C",
"3X c #FEEB9B",
"4X c #FFF49B",
"5X c #FFF899",
"6X c #FEF289",
"7X c #D6C6B4",
"8X c #E8C7A9",
"9X c #F6C8A5",
"0X c #FDDBA4",
"qX c #FCD3AA",
"wX c #FAD7A9",
"eX c #F9D9B6",
"rX c #EECFB0",
"tX c #FEE4AD",
"yX c #FDEBAD",
"uX c #FEE7A4",
"iX c #FEF3A4",
"pX c #FEF5AB",
"aX c #FEFBA6",
"sX c #FCE8B8",
"dX c #FEFCB4",
"fX c #FEFCBC",
"gX c #FEF2B7",
"hX c #F6DDC6",
"jX c #E8D8C8",
"kX c #FCE9C8",
"lX c #FDF3C4",
"zX c #FDFCC5",
"xX c #FDFCCB",
"cX c #FDF4CC",
"vX c #F9EBD9",
"bX c #FDFDD3",
"nX c #FDF8D9",
"mX c #FCFCE5",
"MX c #FDFDEC",
"NX c #FBF5E7",
"BX c #FCFDF4",
"VX c #FDFFF8",
"CX c #FDEFE2",
/* pixels */
"y y 1 > o.Y.U.x.7 1 q % - : k : * @ O @ X < 6 } j.E.4XdXzXgXeX9X).4.3.;.W K b W J s 2 , } ,X@XL # ; ; y : @ @ @ @ : l l M N i * ",
"* - q $ 6 h.U.R.o.> 2 $ : : & % + . O < G +.J.>X4XpXdXxXzX0XA.%.B g g D c x c V V g p 2 G W.aXoXh $ i i i : * y i l l l M N i ; ",
"y ; ; ; @ _ H.+Xx.b < X . . . O 1 h @.y.Y.3XiX2X+X{.[.*XiX<Xj.2 l k l M l k y = y i i : 2 y.fXMX'.t a M : : ; k l N M l l l : * ",
"l i y ; @ 3 M.OXU.m.&.` ' *.*.4.C.F.;X#XOX{.G.w.,.&.m >.+X-X$XL $ i M i j j j k M i i * # 5 :XBXBX_.g * ; : M V N M l M N l : * ",
"y y * @ . l 9.&XqX|.%X|.@X@X#X+X%X{.A.e.,.] b h J J u 3 N.yXdXF.2 M N p i k l l i M : ; ; ; :.vXVXmX^.M + : M M N k j l l j = & ",
"@ @ y C Q 6.`.eXhXeXqX9X&X{.P.M.w.] b s e w s u y = y @ *.yXzXpXy.q M M k S l i M y * * : : : ^.MXmXzX(.8 q y i k z N z l l : * ",
"Q 6.i.(.`.8XqXeXqXrXXX XV.,.` b b u w x x u y a y j j : 2 D.zXzX,XJ y M M M M M M : ; * i M ; D oXzXxXiXj.7 3 u j j y : ; * @ = ",
"'.8X9XqXqX9X&X|. X8.;.T f q r 2 t u t y y j y ; = j l j @ *.yXbXdXs.q y N V V i M : : M i ; @ O %.2XxXsX-XN.v 2 1 @   . . q W 7.",
"9X9X&X{.]./.p.-.Q f t = = = i = * & ; i ; y : * * * y j : g oXcXfX:XQ ; l N V l i y y : X X 2 6 k.3XxXCXCXhXB.] ' _ [ ] <.D.{.&X",
"].A.w.2.%.v 1 $ q x x y = y p l M i ; i i y : ; : * & & ; # 3.tXzXuXy.& k N l N l y *   o u.k.F.2XdXcXvXhX7X'.).@X#X+XOX+X#X%X[.",
"` b e 3 2 q ; * = y y y y y i i k M : k Z l ; ; : : * * y @ K }.xXsX[.H : k j & @ q B %.D.lXdXbXzXtXeX.Xp.7.~.`.gXyX=X{.P.r.w.,.",
"q t g i i q = * = & - y i y : y j N : : M N M ; ; & * y i i w B.sXxX4X3.: * @ F 3.B. X%X=XyXzXlXqXV.%.p - % R oXbXpX$Xh.&.` n f ",
": y t = : : ; ; * y y i y ; : y ; : : M M l M l y : : M M l * -.wXbXzX:Xi.6.a.@X<X-X&X XM.B.sXhX{.,.0 o . . =.:XbXlX{.2.t a y y ",
"j y y = * ; : ; - * i i : : k k ; ; i j k k l k l j y l l k * t ).kXnXkXrX9XuX5X4XE.w.` n f 6..X}.S...7 F ;.E.1XbXgX+XP.8.Q t X ",
"@ = : j : ; : = * * & y k i : : : ; y y y k l l M y y i y i k - 6.eXMXMXbXfXaX$Xx.e.%.A l i u _.9X|.Y.P.D.Y.W.W.OXJ.P.U.{./.9.P ",
"l   & k l j ; ; ; ; * & : : : y j : : i : l z l k j i y y y y % I `.CXVXmXpX{.q.,.-.C x y k $ 7.XXeX0XY.S.#.X...{ ( ( ..S. X).p.",
"N.=.w + : y : : = = ; : ; : y j l k i y y N N N l l k k j : y + & (.vXBXmXsXM.` C k M l l y @ V (.0X-XZ./ ) %.%.E n f m ^ ,. X X",
";X[.m.K X % y : & % & ; j j y y l l : k j y j y l N l l y y = X 8 $XxXBXVXjXW V y y k i y * ; @ 8.=X;X0.0 E T C z j k z e 6 ,.{.",
"@X%X@XL.2.q . & * & : k N y k k y j : ; i : j k S N l k u h s o o.6XsXMXNXu.i M N M i i y y j + ` OX$Xq.6 x P z j j j j k u e 2.",
"4.].%X0X|.y.n . + * : k k k y k k j ; : l N N M N l k k i g q 4 J.6X0XnX~.* y l V Z Z V l l N * 5 H.$Xq., l N k k j j j j k y r ",
"x %.m.@X=X%XL.<.8 .   : : y k j i y y M N M y w 5 t l l M p @ L !.,XuX'.V y l i M I I M l k k : o 4.I.h.6 g z j k j i k j k k k ",
"z a q &.D.OX#X+XJ.>.d . + : y l l i y N k @ 8 ,.q.9 h V M y   t.!.E.B.J l N l k y k k i y y y :   &.Y.H.7 p z p j k j k j j z k ",
"l l y u H 8.L. X@XOXH.=.3   & j k y $ @ @ K A.{.A./ c M y @ > J.,XH.%.S M l N N i ; ; i l l k :   ' U.Y.( f i = y k k N z l N z ",
"i y k S u c -.p./.[.@XU.G.` o o @ ; $ 9 y.@X=X{.2.J V k ; 5 } W.W.,.E V l j : k y i : : j k k :   K Y.E.} w k k V k k k V V V z ",
"k l k l l j l x W 9.m.I.{.L.4.] G v 3  .$X3XL.] H R V k q b x.6Xx.&.E z k j j k k k l j j k : : @ 8 H.U.,.> y l S N k l N M N M ",
"k z N l l z M k k q / ,.Z.P.L.G.Z.N.0.f.E.OX] 2 P P S j w b K.E.,.%.R N N V l l N l l l z k j y $ 2 Z.U.h.4 - y k k N V l k N l ",
"k k k l z l N l k u e 7 ~ ..e.S.A.S.S.c.R.Y.( v p k j q 4 0.%XV.%.I z k z P z k V V N l l k k j : # h.OXL.] > s k k l N M l M i ",
"k k k S N z k N z z P E %.&.&.5.e.M.Z.h.K.U.o.7 d s 2 2 ] ].).W P V z z z P N l k k k N z z z k y X 0.E.OXS.( 6 s k N S k y k l ",
"k k k k k k k l l V P R R Q ! E n H K >.Z.P.K.x.o.[ o.k.P.m.J V P M N N V P N z l l k z z k p i * o ..P.{.I.q./ , e i l k l N N ",
"k k z k k l z z z P N P P P P N V V y q &.Z.Y.E.Y.R.R.R.h.` S I N j k N N N z k j j k l l j : q e ` w.S.h.h.h.q.{ 7 e t i M N N ",
"z z N N N N V N S N N N N N N z P P P j - v r.c.K.c.v.| ~ B P N N k j l k k k j i l l l i * r ] M. XL.S.z.v.l.v.r.| 7 e k N l N ",
"V V P P P V P S P P P V P P I P P V P z k a m >.K.R.v.$.~ f k l l y j k k k j y k k k y & 6 | Z.hXCXCX|.P.K.Y.z.q.r.$.$.] F y l ",
"V V P V P I P P I I Z N N P N P P V V P P U P t ' G.R.n.O.3 V Z V Z N N N l N l l k j * .  .c.rXBXBXBXkX-XU.OXJ.x.c.c.c.v.^ s S ",
"P P P U Y Y Y I I N N N N P N N I P z P R R R P 2 ] W.1XQ.9 y A P I I P P P N : y * * @ o C.tXMXBXBXBXhXL.M.G.OXP.K.+X+XH.{ g A ",
"N P Y Y Y Y I I I N P P N Z P P U I z I R U Y P N 3 d.,X5XJ.8 i P P P N k y : = & # 6 b w.9XcXMXBXCX^.-.J J n >.Z.P.%X0X@X$.v V ",
"M M N P Y I P V P P N N l l P P I P I P P U U P I x 7 d.,X5XF.5 : N j : * * q r 9 o.j.OXtXnXBXhX^.! p z P P N T V. X|.qX%Xq.7 V ",
"M M M N P N V Z Z N N l M N N P I P U V z P P P I Z h ~ 0.1X4XC.# $ a s e 9 [ t.J.<XuXkXMXMX7X7.y k k N N l N N T ~.}.9X=Xw.6 S ",
"M P N M N N P P P I I P P I P P V V P I P P V P U Z z n ( l.1X1XC.8 b } 0.b.W.3XpXfXbXvX7X7.A : j k k k k z P V l a 7._.{.0.4 I ",
"Y Y I P V N N Z I Y I P N N N N N N l P P l V R I N z S n ^ j.4X4X$XQ.$X1X4XgXsXrX7X~.! k y N k j l l z N N I I z y k ~.{.x.7 B ",
"P N I P P N P I P N N N N l k l N l l S V N V I P P I I B h 9 I.dXzXzXgX0X9X(.6.T C V V N M z k z V N N N z l N z y E _.9X$X] q ",
"M M z z P P I P V N N V V V M M N N M I Y I Z Z P P P P x x r ,.uXbXcXeX(.:.T x I V P V j y k k z N z j k z N l * C ~.7XhXtXL.%.",
"+ : z : : P N P N V V N M M N k l N N I Y I P M C P I P P z f / $XfXgX^.B I P V V V P V l N N N N S k j : : = @ r B.8XvXNXvXwXB.",
"E . & = = = k l M Z N N V M k l N V l V S P V N P P U U P P z 6 g.pXpXB.@ : l l k N l l l N V Z P P k : q > 4 ] A.qXlXxXcXkXsXyX",
"I.L   k k N P P N N N M N M k k l Z N P I V V P P I P I P P R l G ;XdX;X] w t p l l l N l N N l l y & o m ] N.-XsXtXqXwXeX9XwXyX",
"3XE.] w l P P N V N N N N M M k k k : P U Y U U U P P P V V P z 2 I.fXfXF.9 G h l l j j z V k =   X b <.I.;XtXyXwX[.9.W ! p.}.|.",
"*X<XU.d.m q : l N N M N N N M N P z P P Y U I I P z z P V l j = 2 I.zXxX3Xk.~ 6 q * %   # q : S -.F.;XdXdXgXtX}.p.*.T P V S -.V.",
"N.$X>XOXJ.1.K t + j M N N N N N N P I P P I Y Y P z z z z p u e o.1XbXMXbXpXI.4.K K >.y.B./._.8XlXzXbXzXyXrXa.T E E I N P N : S ",
"p y.$X2XyXuX=XF.K   = : k k k M : k P P I I Y U N z l j l h b #.W.fXMXBXVXmXbXfXtXyXfXcXnXnXmXMXBXnXsXtXhXi.T M M V z l N N N k ",
"l q <.*XkXnXnXfX$X1.9 2 % : k M i l M P P N S S y y w v / _ d.$XzXNXVXVXBXVXBXBXMXMXmXmXbXxXzXzXxXgXwX}.'.I M l y y l N N N N N ",
"V = s :XvXNXBXnXgX>XQ.d.8 + @ * u i * ; u F L @.@.<.k.b.G.$XiXzXMXVXBXVXBXmXmXnXbXlXsXsXrX[.N.[.2XuX-X@X(.-.i y y : : j N N N N ",
"i + F #XcXNXNXkXqX+X1X,XE.g.L s @ @ + L s.I.:X1X4XdXdXdXzXbXnXmXBXBXNXNXjX8X`.).p.i.;.W E E B b 1.E.1X4X*X).-.@ y k j y l l l l ",
"* O 2.uXvXvXkXvX/.&.1.A.+X1X;XI.k.t.t.!.dXxXfXfXdXzXzXxXmXBXBXvX7X~.7.! R V V l y y y M M N I N 3 / g.>X5X4X).B * l l k k k : k ",
"% 2 I.sXvXkXhX.XE S f v >.L.#X<X$XT.T.T.,XiX2X@XN.F.W.*XgXcX7XW M : M : k M N N V V M M M M : : l s 6 } G.,X,X<.# k z k l l l k ",
"@ F $XkXvXkXhX9.V P V k q n w.{.*X+XV.| #.0.4.K r _ o.j.iXuXa.$ N P P N M M l M V M V i k M N M l z n m ~ o.J.T._ # y k j : l M ",
"+ ' <XcXvXCXjXE A V N k k z T ;.`.(.Q c T -.! I A H ` { Q.4Xg.1 N N P N N N M V V N M M l : M N k l l c v ~ [ O.q.~ > y j j : * ",
"O <.3XkXvXvX9.k Z P V l V P I I E V k P I R Y I A C H 7 d.4XL.3 M P P N M l l M V V N l j : : l z z z V g v _ ~ | v.[ 4 y = = % ",
"h F.pXvXkX`.A k M i N P I I I I I V N V N V P Y I A B v O.1X$X] q N P Z l l N V N Z N l j j i : l N V V S V c b ^ #.n.{ 3 a w t ",
"G F.fXbXkX}.J p p M N N N Z Z I P P N V N z N I I V V n { W.5Xb.8 N V N V N N N M N N l k k j j k N N S l z k t 8 { n.n.^ 9 b 8 ",
"1 _ W.pXeXXXJ * l V N l k M N I P z l I U N y k P P V x 7 G.5X,X .s S M N N N M l l l j i ; i N N N V k y k l l q m #.c.( b b b ",
"& 3 t.W.%X9Xi.q u k l l N M N j k z N N Y N j z I Y Y Z 3 +.1XaXJ._ A A l l N N l N M j i i : k N N N k l V l k * 6 q.c.{ b b v ",
": t G | Z.|.).W # l x V Z V N Z l V P N P N k V I I I P x / $XaXaXy.g U V V N I U N N l k l k : k l l k N N l : # 7 Z.P.} m J p ",
"M t d 3 / Y.=XV.n - l N M l M N y j N l N N V I Y P N N c _ Q.5XdX2XL M I P V Z N N N N l l z l k k l l M k : + , j.,XK.b s z k ",
"i h d d , ,.$X2XA.b 1 l k : j l l y l N V I R R I I Z N J b d.5XaXiXD.J V V P P P P N N N z N l l i j N V N - X o.>X1Xh.m c k j ",
"l S B g 4 7 j.<X;XZ.m & j l P N M k l P P I I I I V I V H b t.6X5XpXwX;.k P V P P N M z N l l M j i y k y : X H E.5XOXX.n P l k "
};
