/* XPM */
static char *_48d205e530e4feaa4c662aae6ca48b6QjRbvhlpUpEYmcln[] = {
/* columns rows colors chars-per-pixel */
"64 64 195 2 ",
"   c #131710",
".  c #161B13",
"X  c #191D16",
"o  c #1B1E19",
"O  c #172015",
"+  c #1A2117",
"@  c #1D231A",
"#  c #1E2A1A",
"$  c #22251D",
"%  c #242B1E",
"&  c #282B1F",
"*  c #24311F",
"=  c #242621",
"-  c #262B22",
";  c #2A2D23",
":  c #2C2D2A",
">  c #263221",
",  c #2B3324",
"<  c #2C3926",
"1  c #2E332A",
"2  c #2E3B29",
"3  c #303226",
"4  c #31342D",
"5  c #313D2A",
"6  c #333C29",
"7  c #343D2B",
"8  c #30392C",
"9  c #32392F",
"0  c #333C2C",
"q  c #363F2D",
"w  c #353F2F",
"e  c #333B2C",
"r  c #383A2D",
"t  c #3B3D2F",
"y  c #393D2F",
"u  c #393D2E",
"i  c #343532",
"p  c #383735",
"a  c #363A33",
"s  c #3C3D30",
"d  c #3C3E30",
"f  c #3E3F31",
"g  c #393B35",
"h  c #3C3E39",
"j  c #3D3D3A",
"k  c #403F3C",
"l  c #2D4028",
"z  c #2E4329",
"x  c #2F4129",
"c  c #30422A",
"v  c #34412C",
"b  c #36422F",
"n  c #35442F",
"m  c #33432D",
"M  c #35492F",
"N  c #33482D",
"B  c #364032",
"V  c #364231",
"C  c #364331",
"Z  c #394030",
"A  c #3E4232",
"S  c #3C4231",
"D  c #3A4531",
"F  c #3C4531",
"G  c #3A4434",
"H  c #374932",
"J  c #394931",
"K  c #3B4A32",
"L  c #3D4933",
"P  c #3C4936",
"I  c #3E4835",
"U  c #3A4C35",
"Y  c #3B4C35",
"T  c #3E423B",
"R  c #3E4A39",
"E  c #3E5036",
"W  c #3E5039",
"Q  c #404232",
"!  c #414034",
"~  c #404334",
"^  c #414336",
"/  c #414736",
"(  c #444637",
")  c #404836",
"_  c #414835",
"`  c #444837",
"'  c #43423E",
"]  c #4A473D",
"[  c #434B39",
"{  c #474A39",
"}  c #404E3B",
"|  c #444E39",
" . c #414A3C",
".. c #424C3D",
"X. c #484E3A",
"o. c #4B4C3C",
"O. c #4D4E3F",
"+. c #494A3E",
"@. c #43533C",
"#. c #4A543D",
"$. c #46593F",
"%. c #4D5B3F",
"&. c #454542",
"*. c #484743",
"=. c #474944",
"-. c #464B43",
";. c #4F4F41",
":. c #4B4945",
">. c #4D4C4A",
",. c #514D45",
"<. c #514E4B",
"1. c #465441",
"2. c #4B5344",
"3. c #4C5B44",
"4. c #4F514D",
"5. c #4E534B",
"6. c #4E5B49",
"7. c #535243",
"8. c #525542",
"9. c #535344",
"0. c #555545",
"q. c #535047",
"w. c #525C46",
"e. c #52524E",
"r. c #58564F",
"t. c #535C4C",
"y. c #5A5D4C",
"u. c #4E4F50",
"i. c #4F5151",
"p. c #555452",
"a. c #595754",
"s. c #565B52",
"d. c #5A5956",
"f. c #575959",
"g. c #5D5C5A",
"h. c #605D57",
"j. c #605F5C",
"k. c #506147",
"l. c #54624C",
"z. c #5A644E",
"x. c #566351",
"c. c #5B6554",
"v. c #576851",
"b. c #5C6B54",
"n. c #5E635A",
"m. c #5E6A59",
"M. c #636555",
"N. c #626A54",
"B. c #62625D",
"V. c #68665E",
"C. c #636C5C",
"Z. c #696D59",
"A. c #64715C",
"S. c #6A755F",
"D. c #5F6060",
"F. c #646462",
"G. c #686764",
"H. c #666B62",
"J. c #6A6A66",
"K. c #6D6C6A",
"L. c #706F6C",
"P. c #677361",
"I. c #6B7463",
"U. c #6E7965",
"Y. c #6E726A",
"T. c #6F796A",
"R. c #717766",
"E. c #797563",
"W. c #727967",
"Q. c #71726E",
"!. c #737B6B",
"~. c #7B7C6D",
"^. c #757572",
"/. c #787774",
"(. c #767A72",
"). c #797A76",
"_. c #777878",
"`. c #7D7D7A",
"'. c #807F7D",
"]. c #76806E",
"[. c #7C8375",
"{. c #7D817B",
"}. c #818473",
"|. c #81817E",
" X c #838A7D",
".X c #848482",
"XX c #878984",
"oX c #888986",
"OX c #8C8C8A",
"+X c #8E908A",
"@X c #90918E",
"#X c #939391",
"$X c #989A97",
"%X c #9D9D9B",
"&X c #A0A19E",
/* pixels */
"# # # # * * % + % % # - % % % % & & & % $ $ ; & ; 3 ; & ; ; ; ; ; 3 ; $ = & ; 3 , ; & > & & & & $ ; ; ; % % * % % * * % , - * , ",
"% # # * * * # O # % % # # # # % & & % % $ $ & & & - & & ; & & ; & 3 ; = $ $ & & > & % % * % & & & ; 3 ; % % * * % & % ; - > - , ",
"% % # # % # # # - , 1 > # # * * ; ; ; ; & & , ; 3 ; 3 ; & 3 3 3 3 3 3 & & & $ ; & * # * % % % & $ & & & % * > * % % % & > 2 < > ",
"% # + % % * % * < i 9 > * * < < , 3 , 2 , - 3 6 6 r 6 r 6 3 3 3 3 3 3 & 3 & & 3 , < * > * * > & % & & - > < 2 < % % * & , 2 , 1 ",
"> % % % * < > * 2 h g < z z l 2 6 r y S S 3 Z F k Q F S t f k ! ! r y r k 6 6 3 6 c < < < < < 1 ; 3 3 v v S a 2 < & & ; < < 1 r ",
"> % & & & * , < a -.i.U M E J K I [ / ` o.L | @.X.` O.7.#.7.0.0.7.O.;./ k Q K Q M N 2 m V 2 2 9 7 Z Q _ P [ R V 2 , & & > ; 3 9 ",
"* % & ; > < c m R -.t.R E R E $.w.t.t.t.y.t.z.w.0.y.y.M.y.M.h.M.M.M.Z.z.%.$.%._ M E N C m 2 a B b S / ` R 1.' G m , ; & & % , , ",
"> > ; ; , 5 M < + = = + @ # # + @ % # $ - 0.A.N.N.N.{ & $ $ $ $ & - & % % %.k.@.U E 2 @ @ @ @ X @ @ $ @ @ $ @ + % w , , > & , ; ",
", & & ; , 2 m < + = - @ # # @ O @ $ $ . X e.S.z.z.Z.S . . .     X o $ o X @.b.$.E @.5 O . X o @ @ = = = = : = @ & C G 9 > & - * ",
", * % > > 2 N < = 1 i > = > > - % & & & % t.U.z.z.Z.P X @ @ o . $ $ % $ @ 2.N.3.@.$.v @ @ @ = = # = - : : : = @ - a s 9 & & ; , ",
", & % % , 6 U 2 - i p 1 > < < - - - - - & t.E.N.Z.W./ $ % & & X % % $ $ O @.v.$.$.%.b $ @ @ = - @ = - : i i 1 = > a 1 , , & ; & ",
"; % & % 3 7 @.C - p T a < 9 < 1 , , 3 ; % 2.S.N.R.}.+.& & ; > % & % $ $ O Y v.@.@.k.b X @ = : i 9 a i i i i i = & 7 9 - ; 3 ; ; ",
"& & & & 3 7 1.P - a h 8 > 1 1 > , , , - $ y.R.N.S.}.O.; 9 r - ; & % % + O L l.W | 3.J + + @ : : 1 9 i p i j 4 = $ 6 6 > & 3 : ; ",
"& & & & ; w ..&.T -.i.1.1.1.1.} P G R 1.^ w.S.N.Z.R.2.& r s 6 , ; & % + . ` k.@.E $.C % w R 2.2.5.i.D.D.g.g.f.-.3 a g 3 r 4 4 > ",
"& % ; ; 1 G 1.-.x.Y.P.P.P.T.T.T.P.m.U.!.I.t.b.z.M.Z.] ; s A s , & & $ O . n $.E @.E m @.t.C.T.(.(.`.{.{.).`.`.C.' a g k k g r ; ",
"$ & & & , a U B 1.x.x.v.v.x.D.D.m.c.v.N.N.2.z.N.Z.I.{ ; s s 7 < & % + + . x @.$.3.W c m C P 1.p.5.d.d.f.e.d.p.5.&.&.&.&.^ a 9 - ",
"$ $ & % > 2 v D W x.n.v.m.x.D.m.P.H.l.x.c.2.l.N.z.M.S & 6 r v < > = # # . H 6.k.1.W V l V G 2.g.t.s.d.p.a.j.a.p.e.>.:.<.&.g 9 , ",
"& $ & % > 2 c C W 6.D.A.D.v.D.P.Q.D.n.t.c.5.w.w.| y.O.#.N.H.C.C.m.m.P.P.6.l.v.x.1.R V G B 1.s.D.d.p.s.s.j.G.j.j.e.<.:.p.&.s 1 , ",
"& % % * < x m C $.x.P.H.A.P.D.D.D.P.D.f.V.6.8.%.%.w.z.U.!.W.W.}.XX X[.[.{.].m.3.1.W z H R 1.t.g.d.B.B.F.K.K.F.j.d.:.:.>.' r 6 < ",
"% * > , < x C P 6.D.Y.P.P.P.P.Q.Y.Y.Y.P.H.e.w.2.%.3.8.N.A.A.W.~.!.T.T.].].P.l.6.2.1.C R R 1.6.F.C.Q.Q.^.^.^.G.F.g.:.-.-.R 9 9 6 ",
"> * < 1 , 2 H 2.v.P.P.D.v.f.f.H.!.!.Q.(.!.s.c.t.l.w.z.P.P.U.!.~.I.P.R.W.P.v.3.l.n.x.@.c.m.m.Y._.(. X.XoXOX'.`./.B.>.-.&.' g 7 C ",
", , < 2 2 C R G u.i.-.B H -.U T p.e.e.f.n.g.(.Y.H.C.!.[.!.U.T.U.A.A.A.C.m.b.v.v.H.U.D.n.D.n.H.Q.K.^.F.K._.K.G.K.m.t.1.&.&.R a a ",
"- < 1 2 9 G R @ O O O .   . O . . . . X o e.|.)._.).(.(.S.A.U.b.v.A.A.m.A.A.b.l.m.P.A.- @ X = - - - - : : : : : 1 1...R ' ' a r ",
"1 1 2 B a G 2.- = = - = @ @ # = @ = = - = e.{.^.`..X[.!.A.A.Z.b.b.P.U.A.A.A.v.6.c.Y.b.* o = = = : = = = : i i : 9 s.&.G ' &.g 7 ",
", 1 1 a 9 w ..; - = - = # = = = = @ = : : p._.!._.(.(.!.Z.I.C.z.b.A.N.k.v.b.v.c.n.n.v.- = = = : = = = = : : : = 1 t.-.G &.>.a 6 ",
"- < a a a w P - - : - - = - - = = = - : - 4.(.(.!.Q.!.~.Q.!.Y.b.b.l.3.$.l.l.k.x.n.x.x.- - 1 : : = = = = : 1 - = - $.R ' &.' 9 > ",
"1 2 a a a a R 1 = : : : - : : = - - 1 i ; s.(.`.).).).^.Y.Y.Q.C.z.3.2.3.6.x.6.t.x.c.c., : i i : : : = : : : : = ; 2.-.P ' k i , ",
"< 1 9 a h h &., = - i p : 1 9 9 : : 1 i &.Y.Q.`.{.`.`.^.Y._.!.A.z.3.w.3.6.6.6.f.n.n.H.1.1 1 i i 1 : : i : i : = ; 6.>.&.:.' T 9 ",
"2 9 3 g *.*.-.1 : : i j i T T j i 1 1 u.XXXXY.).).!.).!.K.`.^.C.l.k.6.3.3.1.6.s.g.6.m. Xs.i i i : 1 i i i p i : , s.>.>.,.*.&.i ",
"g i i h *.*.>., : i j T j T  .T h a -.{..X+X.XK.Y.H.Q.^.K.^.L.c.k.6.l.l.l.1.1.6.p.x.k.P.].i.p p p p i p i j p : ; r.5.>.,.:.&.a ",
"' ' h :.e.<.e.1 1 j u.>.-. .-.-.h T {.(.Q.{..X{.Y.Q.Y.L.Q.Q.L.c.6.k.6.6.6.1.6.t.D.D.6.$.P.XXD.i j j &.j p ' j i 4 s.a.<.,.>.*.^ ",
"T h h >.e.e.d.1 i &.u.i.i.u.u.-.a _.XXT._._.{._.Q.Q.).Q.Q./.Q.Z.l.3.6.m.l.l.p.n.J.D.6.1.x.{.XXf.: j &.j i j j i i B.g.e.<.<.k j ",
">.' k :.a.d.j.g p &.i.f.D.g.>.k L.@X^.^./._.^.^._._.u.p j p p p 1 > : i i T Y.Y.K.h.5.@.s.Q..XXXp.j ' &.j j j p i F.h.a.a.<.:.*.",
"a.>.<.p.d.F.K.j j =.p.D.F.n.&.L.@X`.L.^.L.K.L.'..XD.= X X o o o X X o = o o f.{.).L.d.6.x.B.L.oXOXd.&.-.&.&.T j p K.G.g.p.<.p.a.",
"d.<.p.a.d.B.L.' j u.f.D.F.i.D.OX{.^.K.K.L.^.`..XK.: : i i p j p i i i p : : i K. X).F.x.t.B.L.).@XOXp.h &.>.=.&.T ^.K.g.<.<.,.a.",
"a.a.h.j.B.L._.*.&.i.g.F.D.^.$XoX`.Y.L.^.L.^.`.`.j : p p p k k j a j &.T p p i j Q.`.Q.n.B.K.Q.^.|.OX X5.>.p.u.>.k L.K.f.:.*.*.<.",
"<.<.a.h.h.L./.:.>.p.D.f.K.&X@X_.Q.Q.G.G.G.^.'.&.: i k j k *.*.k j &.:.=.T j i : ' /./.V.j.J.K.K.L.Q.XX).<.d.p.>.k K.G.h.>.*.*.<.",
">.e.p.a.d.K._.:.>.f.g.K.%X#X'._.H.F.F.G.K._.>.: p k &.:.*.>.p.>.&.>.u.u.=.&.p : = <.Q.J.G.K.G.J.K.Q./.@X`.g.d.>.k J.G.j.<.:.*.<.",
"<.<.<.<.p.G._.&.=.p.F.@XoX'.`.K.f.p.d.B.L.a.: p k &.>.u.p.f.d.p.>.u.f.f.u.=.&.i : = e.L.G.G.G.G.G.K.K./.@X.Xd.>.p G.G.h.a.<.&.*.",
",.<.:.:.<.F.^.&.&.D.@X.XK.^.K.j.e.e.a.B.g.: : &.*.>.a.f.a.j.D.j.s.i.D.D.i.u.u.k i = - d.L.G.j.j.B.J.J.V.^.%X`.:.k G.G.a.<.<.*.&.",
"*.:.<.,.<.j.^.' u.#XOXL.K.G.F.a.p.e.f.d.1 : p >.f.f.d.j.D.D.D.F.D.f.F.J.D.D.f.u.j = o i G.K.j.j.G.G.G.a.j.'.#Xj.p L.F.p.>.,.*.:.",
"*.>.>.:.<.a.j.k L.%X^.J.F.j.g.d.g.g.p.i @ i &.p.g.f.D.G.G.K.K.G.G.F.K.Q.K.G.D.f.u.i : : ' K.K.F.G.F.j.j.j.j.'.'.*.J.j.e.>.>.*.*.",
"*.:.*.k *.<.j.*./.'.L.G.j.d.j.j.H.D.h = : k u.F.F.K.K.L.K.L.L.^.Q._._.`._.^.K.F.f.&.i : : p.^.F.j.j.j.j.j.j.j.'.G.j.j.a.p.<.>.*.",
"k k ' *.&.*.e.<.G.G.G.j.a.p.a.D.F.:.= p j =.f.G.K.^.L.L._.^._.'._.`.|..X|._._.L.G.p.' p j : f.K.G.j.a.a.a.a.a.F.L.j.j.a.<.<.>.*.",
"k *.*.*.&.k *.>.a.j.j.a.p.p.D.G.p.: i >.&.u.D.K.L._.^.`.'.'..X.X.X.X.XoX.X|._._.L.g.:.&.*.p p g.L.G.j.a.a.j.j.j.h.p.j.a.a.<.>.*.",
"k k k *.&.k k &.e.<.a.a.f.f.F.G.i i *.f.>.u.g.K.K./._..X.X.XOXOXOXoXoXoX.X'._.^.K.D.p.>.u.>.j k L.G.a.a.a.j.h.j.p.a.j.j.h.<.*.*.",
"*.k k k &.*.*.k *.:.e.h.j.G.G.&.i u.p.g.u.f.D.K.L././..XOXOXOX.XoX|..X.X'.`.`._.^.D.j.a.D.f.*.p >.G.j.a.h.j.a.j.a.a.j.a.a.r.:.*.",
"k k *.:.:.,.:.k *.>.<.D.K.^.*.i >.g.g.j.p.j.F.^./.^.^..XoXOXXX.X'.`.|..X'.|..X_._.F.d.f.F.D.p.*.k e.G.j.a.j.a.h.a.f.h.h.a.e.<.:.",
"k k ,.*.*.k *.k <.e.a.L.^.j.: >.D.D.D.G.f.D.K._._.^.L._..XXXXX'.`.(.`..X'.'.'.'.'.G.h.p.G.F.a.<.&.k p.j.a.a.a.a.e.e.a.a.a.<.>.*.",
"*.,.,.*.*.*.*.k ,.r.j.L.G.p *.g.D.D.F.K.D.D.L._._.^.^.^.'..X.X'.{.(._.{.'._.'.'./.F.f.f.G.F.f.f.u.&.p a.F.a.a.a.p.e.a.a.a.,.<.*.",
"&.,.>.*.*.:.*.*.>.<.a.j.k k f.g.D.G.K.Q.F.D.K._.'./.^._.'..XXX.X[.(.).(.`._._.'._.F.f.d.G.K.j.d.f.>.k k j.j.e.a.,.p.a.a.p.,.>.k ",
"&.:.*.*.*.*.>.:.<.<.a.k j p.g.F.K.^._._.L.K.L.'.'._./._.'..X.X|.(.{.`.`..X'.'..X'.J.j.D.K.K.F.j.j.p.>.p k h.a.<.*.<.<.p.<.,.*.k ",
"k *.*.*.k k *.:.<.u.&.p u.g.F.K.^._._.|.^.G.^..X'.'./.'.'.'..X|.{.{.{..X.X'.'.oX.XL.F.j.L.K.K.D.D.a.u.>.p *.a.p.*.,.<.<.<.*.k k ",
"*.k k k k k *.:.u.&.i u.D.F.G.L._._.'.|.L.G.^..X'.'._.'..X.X|.|.{.(.{.{..X'.'..X'.^.F.j._._.K.K.F.f.p.u.k i :.p.*.*.>.<.>.*.k k ",
"k k k k k k k ,.*.i &.D.F.K.^._._.'.'..XK.K.^..X.X'.'.'..X'.'.(._._.{.`.'..X.X.X'._.G.F._.L.L.K.G.D.f.a.u.j i >.*.&.k *.*.k k k ",
": p k i p 4 i k : i u.D.G.L.^._.'.'._._.K.F.^._._.'./.'.'.'.'./.(.T.^.^.'.'.'.'.'.^.G.j.^.L.^.K.K.F.a.a.u.*.: i k k k k k i i i ",
"i p j ' k p k k k *.j.F.K.^.'.'.'.).)./.L.L._.`.`..X'..X.X|..X'.(.Y.K.Q._..X.X_.'._.K.F._._._._./.^.J.G.a.<.>.k k <.>.&.k k p : ",
"L.L.K.^.).'.'./.'.'.oX.X'.'.oXoX|. XXX'.XXOXOX|._.`.'.'._._.'..X{._._._._.{.XXXX.X.X.X'..X'..X.X.X.X.X.X'.E.'.'.'.'.'.'._.L.G.G.",
"e.e.e.d.d.d.p.<.<.a.a.a.<.e.r.<.<.e.>.:.:.>.>.&.&.&.&.&.&.&.&.=.=.&.&.j j &.&.=.*.&.*.*.&.*.*.*.>.>.,.>.k k ,.u.<.<.<.u.u.<.:.:.",
"*.*.,.p.<.<.u.<.>.<.u.<.<.<.<.,.:.>.>.:.=.&.=.>.>.&.&.>.=.&.&.=.&.=.=.&.&.&.&.&.&.&.k k &.&.*.*.*.*.,.,.k ] *.*.&.*.>.>.>.*.*.k ",
">.,.a.a.a.d.a.a.a.a.d.d.d.p.p.p.,.e.e.<.u.>.>.u.u.u.>.>.>.>.>.>.>.u.>.u.u.&.u.=.>.*.*.*.*.:.>.>.u.u.u.>.u.u.<.,.<.q.e.e.e.,.:.,.",
",.p.a.d.d.D.h.d.d.d.j.j.j.d.r.e.r.a.a.e.e.e.u.u.u.u.u.u.>.>.u.u.u.u.u.p.u.u.u.u.u.u.u.u.>.>.,.>.u.p.p.p.p.u.u.p.u.e.q.e.e.<.,.>.",
"p.d.g.j.j.F.D.F.F.D.j.F.h.h.h.h.h.g.g.h.d.g.p.g.f.g.f.p.p.p.e.p.f.f.f.f.f.f.f.f.f.f.p.a.a.a.p.p.p.e.f.j.a.h.a.a.a.a.a.a.g.<.<.<.",
"p.g.d.D.j.F.F.j.G.F.G.J.V.V.j.j.h.D.F.j.D.D.D.D.g.f.g.D.g.g.d.f.f.f.D.D.D.f.D.D.g.f.j.j.a.a.a.a.a.a.j.j.g.j.g.h.a.a.g.a.a.p.u.u."
};
