/* XPM */
static char *e05fa040a276457bbd8ee3fd75c741099SHl8x32KkoRt3j4[] = {
/* columns rows colors chars-per-pixel */
"64 64 197 2 ",
"   c #0E0F0A",
".  c #15150E",
"X  c #1B140E",
"o  c #17180F",
"O  c #161710",
"+  c #1F1710",
"@  c #171810",
"#  c #1C1C13",
"$  c #23140F",
"%  c #2B130F",
"&  c #34120F",
"*  c #251510",
"=  c #2C1510",
"-  c #231D14",
";  c #2B1C14",
":  c #331511",
">  c #3B1511",
",  c #331C15",
"<  c #3C1B15",
"1  c #3C1F18",
"2  c #1F2016",
"3  c #222116",
"4  c #2B2017",
"5  c #252519",
"6  c #2C251A",
"7  c #27281B",
"8  c #2B2B1D",
"9  c #312117",
"0  c #382017",
"q  c #33241A",
"w  c #3C231A",
"e  c #332B1E",
"r  c #3B2A1E",
"t  c #2D301F",
"y  c #2E2E20",
"u  c #312E20",
"i  c #3D2E21",
"p  c #2F3021",
"a  c #343424",
"s  c #3B3325",
"d  c #373827",
"f  c #393927",
"g  c #383728",
"h  c #373828",
"j  c #3B3C2A",
"k  c #3E3F30",
"l  c #431613",
"z  c #4B1613",
"x  c #441B15",
"c  c #4C1A16",
"v  c #441E18",
"b  c #4C1E18",
"n  c #531714",
"m  c #531A16",
"M  c #591A17",
"N  c #531E19",
"B  c #5B1E1A",
"V  c #44231B",
"C  c #4C241C",
"Z  c #43291E",
"A  c #4B281F",
"S  c #54231C",
"D  c #5B231E",
"F  c #54281F",
"G  c #62231E",
"H  c #6B221E",
"J  c #422D21",
"K  c #4D2B22",
"L  c #552720",
"P  c #5B2720",
"I  c #542C22",
"U  c #5B2B23",
"Y  c #433426",
"T  c #4A3225",
"R  c #463629",
"E  c #4D3528",
"W  c #433C2B",
"Q  c #4B3B2C",
"!  c #543126",
"~  c #5B3127",
"^  c #543529",
"/  c #5C352A",
"(  c #543C2D",
")  c #5C3A2D",
"_  c #4F3E33",
"`  c #5C3E31",
"'  c #632621",
"]  c #632B24",
"[  c #642F28",
"{  c #6B2B24",
"}  c #623127",
"|  c #63332A",
" . c #6A352C",
".. c #63392D",
"X. c #6D392F",
"o. c #70322A",
"O. c #643E31",
"+. c #6D3C34",
"@. c #3E412D",
"#. c #41422E",
"$. c #4C412F",
"%. c #50402F",
"&. c #444532",
"*. c #4B4532",
"=. c #474833",
"-. c #4B4B36",
";. c #4D4E39",
":. c #544433",
">. c #5B4433",
",. c #534A36",
"<. c #5A4936",
"1. c #534738",
"2. c #544D39",
"3. c #5B4D3A",
"4. c #4E5037",
"5. c #4F503A",
"6. c #53543D",
"7. c #5B543E",
"8. c #57583F",
"9. c #58583F",
"0. c #624333",
"q. c #694234",
"w. c #634438",
"e. c #6F463D",
"r. c #624C3B",
"t. c #694A3D",
"y. c #63523E",
"u. c #4C4C40",
"i. c #555641",
"p. c #5C5642",
"a. c #575841",
"s. c #5C5C43",
"d. c #5C5D4A",
"f. c #764C42",
"g. c #645543",
"h. c #6B5445",
"j. c #625D45",
"k. c #6F574A",
"l. c #655B4A",
"z. c #695D4B",
"x. c #725D4E",
"c. c #735448",
"v. c #5F6046",
"b. c #5F6149",
"n. c #5E6050",
"m. c #616147",
"M. c #64644A",
"N. c #6A644D",
"B. c #67684D",
"V. c #696A4E",
"C. c #656652",
"Z. c #6A6652",
"A. c #676952",
"S. c #6B6C53",
"D. c #6D6E5B",
"F. c #726B56",
"G. c #736C5C",
"H. c #786358",
"J. c #6F7055",
"K. c #6F715E",
"L. c #707256",
"P. c #75765D",
"I. c #72735B",
"U. c #78725F",
"Y. c #77795F",
"T. c #727261",
"R. c #757562",
"E. c #7B7662",
"W. c #767866",
"Q. c #777862",
"!. c #797966",
"~. c #7A7C64",
"^. c #7A7B68",
"/. c #7D7D6B",
"(. c #7E7E6A",
"). c #7F806C",
"_. c #7F816A",
"`. c #82826E",
"'. c #83846E",
"]. c #858671",
"[. c #838470",
"{. c #888470",
"}. c #878873",
"|. c #8A8B76",
" X c #8D8E79",
".X c #8E8D7C",
"XX c #8F907C",
"oX c #91917D",
"OX c #949584",
"+X c #979885",
"@X c #989887",
"#X c #9A9B8A",
"$X c #9E9F91",
"%X c #A4A594",
"&X c #A7A897",
"*X c #ADAE9D",
"=X c #B6B8AB",
/* pixels */
"l.A.W.).`.|.XX|.[.[.].[.!.)./.^././././.W.W./.[./.T.K.A.n.n.A.C.T.W.T.n.n.C.T././.^.W.W.^.).R.K.K.!.|.XX|. X X}.[.`.[.T.D.T.T.l.",
"w T 1.i.v.I.Y.P.P.A.S.S.d.b.d.M.M.n.C.d.i.d.d.C.n.u.@.k j h k k &.@.h y y p k u.d.M.i.6.i.5.5.5.b.C.J.P.Y.P.S.S.M.C.l.;.@.W U 1 ",
"4 m N I s f =.6.8.6.8.5.;.=.-.-.W @.&.=.W &.&.k j p 5 y h =.=.f &.=.h # 2 # # a g j f @.p t a j =.;.5.a.s.a.=.j a a 8 6 < z m X ",
"O < B n M V 7 d f h h a a h a a h 7 7 p h a a p k i.n.d.j f #.@.y ;.i.D.n.@.p k @.@.g y 7 a a t 8 p p d h h f a 5 O = > : z <   ",
"O - B c V N x Z -.=.f a &.5.-.&.-.g a &.d a p d 6.K.~.'.Z.6 q W 4 ,.E.].[.Z.&.h =.W -.@.a &.f @.;.=.g g &.;.&.y ; < v , ; z *   ",
". @ b b a a V c V W a.B.a.J.A.5.=.j f =.&.a p @.-.$.T K L x l x c S D U / / ( i a j -.-.=.@.@.a.A.6.a.a.-.a 4 < b b 6 # , z + O ",
"O @ ; < e d #.$.T c A p.B.6.a.m.M.M.8.#.f 8 w V x > > x < w q 6 w Z x < x n c N S E W =.M.s.s.a.;.=.a.j 7 , b E Q T y ; x q - y ",
"y # 3 , > - 7 j *.D F U h.C.s.6.;.a.a.a 0 x l x x r s s s Y j a s j s a r v q v x m m I 2.&.=.6.s.b.=.i S m ' s 8 8 - l 1 y y a ",
"h y 5 3 : ; 8 a a ~ >.C C O.z.I.U.*.Z c l v Z *.*.;.;.-.W W i.s.W f Q ;.Q R #.W g r V M B ! p.d.s.W w S ! b S W u 3 5 x e g -.#.",
"j h 8 7 ; w j u #.m.j.Q W S C ! 1.J x v J T *.s.p.M.M.6.;.s.M.M.s.;.=.6.9.9.s.6.#.@.d s V G U J Z C K 6.6.! w f g 8 w x 7 =.;.=.",
"=.6.@.p 7 < s 7 f a.*.R 6.<.( c l l J E *.^ p.S.m.S.V.;.5.5.=.-.=.8.-.6.J.I.Z.8.6.&.#.&.f b z z P :.=.-.-.#.4 u 8 q z < h 5.6.&.",
"-.i.6.f 5 * w h f R s Z @.K I c c b N / :.X.V.J.3.F.V.W &.&.5.s.#.j W 6.I.P.B.3.B.v.8.4.R N c c m D Z f *.j q e 7 > < g ;.a.6.-.",
"=.a.j.5.y # % w f -._ T =.C c K ! P K S U X.F.S.j.C.6.E 6.8.A.I.a.4.6.2.M.~.N.` J.B.<.V K ^ T v 9 N G %.;.d q 3 # > e -.s.s.s.5.",
"=.a.M.v.&.7 $ : a f f f K S ( ,.g.O.p.` ~ ] q.j.M.i.a.j.B.S.~.~.P.M.M.M.s.M.S.3.M.<.F ^ ;.b.*.T a r D S J e 7 # % < @.8.v.s.a.-.",
"-.a.M.m.8.j 3 : J d 7 V m ( ;.i.S.3.d.y.t.[ | ] ^ d.Q.~.I.Q.!.M.~.P.P.Y.J.6.8.g./ O.g.7.6.<.a.s #.7 A M B T 7 # > W 8.m.s.s.6.=.",
"-.a.V.s.a.6.f - > a q n V j a i.a.a.N.g.g.7.:.I / | h.I.I.[.S.i.~.~.~.~.J.9.K S g.L.Y.M.6.r #.e d 7 5 V N < # : V 6.m.m.s.s.b.6.",
";.s.B.m.9.9.;.8 > > x S s d d &.@.a.p.>.:.:.Y 3.j.) / ) N._.B.S.J.`.B.j.` U ~ I 6.A.P.S.v.f 8 8 8 8 t 7 V z % m *.p.M.m.m.m.v.6.",
"5.m.V.s.9.6.6.a ; n m 4 a @.@.j -.A.j.j.1.Q 6.j.7.0.p.P | O.Z.!.S.G.<.A ^ >.9.:.-.,._.J.M.4.a t f d 8 3 7 N n F 8.v.m.s.j.m.8.5.",
"-.s.S.m.6.6.;.t , M b 3 5 f f =.M.B.M.S.,.-.s.M.s.p.8.( Q P O.x.N.^ I E d.j.j.2.8.W A.S.v.8.=.d @.a 7 7 2 , M ~ s.m.s.s.9.9.4.=.",
"-.v.V.M.6.4.@.8 b c N 6 8 @.j =.5.5.S.b.*.9.s.d.d.a.;.2.7.h.e.] ] | -.a.6.C.i.2.s.-.-.Z.a.-.5.f &.f a f 5 < B ] j.M.s.s.s.s.#.a ",
"=.s.v.s.=.#.#.r n ; < < 7 ;.a f j ;.M.-.a.a.6.5.C.&.W.s.j.w.| / / ] ^ F.d.a.C.*.a.6.-.a.C.g f t 5.@.8 a 4 b 1 B 0.M.m.m.s.v.8.#.",
"4.9.v.s.4.=.#.C x e e < 6 5.h t @.s.5.C.B.a.i.I.u.;.`.6.` U / h.l.O.~ +.z.j R.6.6.2.S.a.a.&.a 7 a.f t 8 0 x 7 K } M.m.B.m.v.s.5.",
"6.9.s.s.-.4.:.D w =.f 0 V f @.#.;.-.A.~.I.K.Q.oXi.a.H.K U ` g.Z.G.z.r.]  .I W.}.D.A.J.I.6.=.&.j @.p 8 6 V e f :.D y.M.m.v.m.s.8.",
"6.9.v.6.#.4.>.D W -.=.7 < r d #.=.@.M.~.P.i.M._.Z.` | L -.z.I.Q.M.p.E g.h.' f.F.s.M.B.M.&.&.@.f f a 8 q A s 6.M.~ ) m.M.m.M.s.8.",
"6.m.m.9.9.s.~ } 4.@.=.8 , < 8 @.@.@.i.d.W.`.^.p.I U ` h.s.6.I.R.6.W 3.F.h.S S  .x.T.i.i.=.&.&.a t t 4 V Y &.B.L.>.D y.M.M.M.m.9.",
"6.m.m.M.m.9.G 0.s.@.@.t 5 > 9 @.&.i.d @.;.i.h.+.g.g _ k.|.!.~.M.S.Z.]./.*.W H.z.K ( _ p &.-.@.y 3 3 0 x d 6.9.V.y.F 3.m.B.B.B.6.",
"6.m.J.V.M.<.G y.J.6.a 2 2 ; : a 5.C.=.y 6 > l c.#Xu.J H.&X*X|.n.OXOX%XW.h [.|.&.- b b i C.&.j 7 2 o > 9 #.6.8.9.7.F >.m.B.B.B.6.",
"8.m.J.J.m.>.] j.V.s.4.t # 3 > w ;.i.h , b K q _ @X!.u G.OX#XD.&..X].XX&.d.@Xn.y W _ K b ^ ;.h 7 3 , V W =.=.4.6.y.~ 0.M.m.B.M.6.",
"6.B.J.V.m.>.D m.B.s.v.@.5 3 ; x h *.< / l.1.u.1 G.`.j ;.i.i.;.y d.@.a.y C.T.R &.A.1.z.; V C e 7 3 l Y 9.9.6.9.M.M.~ | B.m.m.m.6.",
"-.v.B.m.M./ U s.s.9.4.a d f 8 b I V N p.=XT.i.y &.i.8 p y h h 5 j y h # y ;.y ;.d.@XOXu f J C , V S a 6.9.6.m.m.B.) ~ m.B.J.v.6.",
"4.s.M.m.M./ ~ m.s.9.#.@.5.5.W x b i L k /.&XC.6 3 y # 8 2 5 7 @ 7 @ y # @ 5 - ;..X$X2.a f h F b D / a j 4.4.m.m.v.) ~ m.V.V.v.4.",
"6.s.S.S.V./ ~ s.s.9.@.=.v.3.I V V i C 6 k W _ a a 5 8 7 5 # y p 3 3 5 5 7 5 j =.;.&.q s j j r V S } Z a 6.9.9.m.9.^ U m.V.B.v.4.",
"4.9.V.J.B.) ~ 9.j.s.&.u ` L ( W J N U u g j &.5.h a =.;.d.j k i.a a.i.j a y =.;.@.d 4 Q -.@.A B ` l.V v 2.v.8.9.m./ U m.V.V.m.*.",
"#.9.V.B.M.^ U s.d.i.Q x ^ z.S.a.g K ^ =.h s._.i.y 5 h 5.A.=.h i.h S.d.@.7 3 a T.K.&.f ,.j f C [ N.M.6 N D %.6.6.s.^ U m.m.M.m.=.",
"#.6.M.B.v.^ P 9.8.^ N b y A.E.Z.l.1.V s =.a.K.@.h y y =.S.d.&.d.&.D.a.h 5 a p d.C.a.f #.;.6.I c.W.&.u _ %.D ~ 3.v.~ ..m.m.m.9.#.",
"-.s.B.j.9.%.D %.! I R J y y s u @.f Z K ;.a a d &.a 8 &.A.A.&.i.;.T.a.a 8 a ;.y f =.6.;.#.Q N R a 8 *.9.8.) I D <.U q.v.V.V.m.-.",
";.v.m.6.8.:.G F 0.;.;.6.&.5 # 8 5 8 s < i f d d ;.@.7 j b.C.a.M.i.K.a.8 p &.6.j @.#.a t 8 V C 7 3 j 8.$.6.>.3.>.} G 0.m.B.B.9.*.",
"2.v.B.s.7.! D ..8.-.j.M.a.&.7 5 5 8 a : V e a @.h =.# y b.).Z.d.P.S.@.# j &.5.&.j j 8 7 q c e 8 y ;.6.4.8.9.6.7.r.G { <.m.B.9.=.",
"9.m.v.<.U F ~  .6.4.9.7.M.s.f 8 5 7 2 # > 0 8 #.y =.5 # ;.W.d.h _.s.8 . &.h -.&.8 p # 3 < < t p -.8.6.7.p.6.9.9.0.D D { q.M.v.-.",
"6.7.q.D A A U { ( %.( ~ r.3.E e ; q ; * : m 0 q i R 4 * 1 p._ q g.R ; * i r W r q ; ; ; b 0 w J 1.<.( ~ >.,.<.:.F S A F G  .<.4.",
";.0.o.~ I D S N S D ! I I ^ I V < x x n l z l l A S C > > C V l I z > x K K C > : > l z m x x A U D C F ~ U U D b A A F ^ G ..,.",
"2.m.0.9.7.| ~ B S / 8.7.j.M.*.7 - 5 # : z > & - -.6.*.* X r y * a = $ V 8.6.R : # # < n 4 3 5 j >.0.E :.6.9.7.G F ,.2.3.9.>.8.-.",
"6.s.7.9.7.7.<.U G ..9.7.N.9.g 3 7 7 8 X : 4 > i 5.a.a.2 . 8 7 @ 7 # . R s.6.&., 8 - > v 8 7 # 8 R %.%.7.8.s.7.G ~ >.( -.m.s.a.6.",
";.8.m.s.s.s.-.#.] ~ 7.<.m.-.7 7 =.j s & $ p , C =.6.M.g O 7 # @ 3 # # -.5.&.*.a i < n i @.5.d 5 f <.s.v.m.v.0.G %.4.T 3.M.M.s.;.",
"4.9.B.B.m.7.-.4.<.D r.m.b.j - e a.-.a ; X 7 5 x e #.6.&.2 2 # @ 3 @ a ;.=.y f 8 , M v g W j.6.5 8 6.m.m.M.y.G | #.@.W 7.s.s.9.-.",
";.9.B.J.j.,.6.6.p.~ U j.v.h 2 w B.;.&.7 o # 8 b V j 6.#.d p # # 8 g f ;.#.a 7 g v z - @.Y C.a.8 8 6.M.v.4.~ ] 0.=.@.W ,.6.2.6.-.",
"6.s.v.m.y.Q 4.4.s.y.P ` s.f 7 r C.M.;.a @ . - V x Y 5.=.@.d 8 8 a j =.=.j 7 3 8 l : 8 5._ D.=.7 8 4.v.m.%.G >.s.#.#.#.=.8.6.6.4.",
"-.v.B.m.9.4.6.9.V.M.>.P >.=.8 a j C.a.d.;.# 2 - : w 5.d a 6.;.j s.&.p =.a # # , l u A.i.M.;.a 5 a 8.v.<.G / s.s.@.#.&.#.4.7.9.6.",
"5.v.V.v.8.m.M.M.B.B.m.) D ( a t 5 @.Q. Xd.O 7 8 u > i y p =.@.a ;.j 7 g # a 6 z = 5 OXQ.b.7 7 8 =.v.y.D } s.M.m.4.#.=.=.=.4.4.4.",
";.s.B.m.M.B.j.v.v.m.L.M...F R a 8 3 D.%Xn.@ # y g Z J p a f a h h a 7 f 8 =.V l @ 2 OX}.a 3 8 #.8.7.} | y.m.B.V.6.@.=.4.4.4.4.=.",
"-.9.M.m.m.M.s.s.v.B.V.B.j.| F E a 5 @.}.C.7 # 5 g W v e @.6.;.&.8.-.8 h h *.b ; 3 k  XC.# 8 #.9.<.U } y.m.m.V.V.s.4.9.m.M.9.4.&.",
"#.4.v.m.M.B.m.9.m.B.m.M.N.6.! G Z 8 p Z.C.h # y 8 y < v &.6.6.j 5.5.a g 8 C b 3 5 i.A.&.5 h 6.<.F } y.s.8.M.V.v.m.m.m.m.m.4.=.#.",
"@.6.M.B.M.m.s.v.s.B.V.V.M.6.3.} B N i i.=.i.h 8 7 p u x Y -.=.a =.#.8 d i c ; y k 5.=.j 5 s ^ F { y.m.m.v.v.s.v.V.V.B.m.6.&.4.#.",
"=.8.s.B.M.8.9.B.B.m.B.B.M.9.9.q.^ M S K 8 p &.=.# 7 f V V -.@.a &.#.p j C < 4 =.y p y a ; x S G r.m.8.6.v.v.8.m.V.B.B.v.4.4.6.=.",
"@.;.a.s.s.6.6.m.9.9.9.9.6.v.v.3.-.w c n l w W f p 7 7 q x s f a f g 7 w N i a @.g # * < l x F  .y.v.6.8.v.m.6.6.9.s.m.s.*.6.4.=.",
"j ;.6.5.;.-.6.v.m.9.6.6.6.9.9.v.;.y 6 Z m M c x q f 7 # < x 5 3 7 3 - x C p # * q < l l & Z E ~ s.v.s.4.v.M.m.m.s.9.m.9.6.8.4.#.",
"j u.;.;.=.-.6.6.s.6.4.9.9.v.s.s.8.a 3 8 = x b m n x < 0 w n , 4 u 8 w l : & > > > & % : 5 W 2.,.6.m.B.8.6.v.B.m.s.9.v.8.6.8.-.@.",
"-.;.;.;.5.a.5.;.6.6.9.m.s.9.9.v.a.=.8 3 - 8 w i w b c x z n c x x l l l z x w ; 8 o # ; f -.6.6.6.v.m.m.6.6.m.m.B.M.9.9.8.5.;.@.",
";.;.6.6.a.6.-.5.6.6.6.v.9.-.8.m.j.9.-.a 7 3 - j s 4 4 $ , x n > 9 x z < < W 6.3 # 2 8 j -.#.-.4.=.s.s.8.6.#.9.V.B.m.9.m.b.;.-.&.",
"j ;.6.a.8.5.8.a.6.4.9.m.B.v.4.6.s.m.s.6.i ; # e s 7 # 2 - - m > q x < < q a.-.- 2 a #.$.=.#.@.#.=.4.6.6.4.@.v.P.V.V.B.V.s.i.;.k ",
"&.;.8.6.6.s.M.v.6.-.4.v.V.B.4.9.s.s.M.M.%.Q e # ; q - 3 e 6 F n v N s q f j 7 3 f 2.6.#.=.=.f #.=.@.4.8.@.=.v.L.J.S.M.V.M.v.6.#.",
";.;.8.a.a.M.V.V.B.m.6.9.B.9.@.-.i.i.8.a.m.m.$.s 7 4 , 7 a @.! H B ] R V h 8 8 g ;.;.4.$.4.4.&.#.4.4.8.8.&.-.B.J.V.V.M.M.M.M.s.5.",
";.-.;.5.a.a.M.m.s.9.9.4.6.&.f =.-.=.=.-.6.9.Q *.#.7 - 7 e f g I P T f w h f *.*.-.=.=.*.4.4.4.4.*.8.6.6.-.s.M.J.S.m.s.5.s.6.6.5.",
"&.=.;.;.a.=.6.6.4.-.-.&.#.f f j &.f a j #.=.$.=.=.p t t 6 8 t W 1.&.W j &.&.=.=.=.#.#.#.#.#.=.#.@.=.=.=.5.5.5.s.5.=.@.f -.=.-.5."
};
