/* XPM */
static char *_bbbb948e759483094be890205fb5214xLgqJJ3jA2jhE2kj[] = {
/* columns rows colors chars-per-pixel */
"64 64 86 1 ",
"  c None",
". c #001FCD",
"X c #001FD3",
"o c #0020D6",
"O c #0021DF",
"+ c #001FE6",
"@ c #0022E5",
"# c #0023EC",
"$ c #0628EC",
"% c #1030E7",
"& c #1131ED",
"* c #1938E8",
"= c #0024F4",
"- c #0529F6",
"; c #0A2DF1",
": c #0025FD",
"> c #042AFE",
", c #0A2FFE",
"< c #0E31F5",
"1 c #0D31FD",
"2 c #1235F6",
"3 c #1738F6",
"4 c #1C3CF5",
"5 c #1235FD",
"6 c #1639FE",
"7 c #1A3CFC",
"8 c #203EE7",
"9 c #203FEF",
"0 c #1F40FE",
"q c #2643EA",
"w c #3F58E7",
"e c #3651E8",
"r c #3954EA",
"t c #2141F4",
"y c #2C4AF6",
"u c #2444FD",
"i c #2748FF",
"p c #2B4BFE",
"a c #304FFF",
"s c #3C58F6",
"d c #3251FE",
"f c #3957FC",
"g c #3E5BFE",
"h c #435BE6",
"j c #425DF7",
"k c #415DFC",
"l c #4F65E7",
"z c #4761EF",
"x c #4E65EB",
"c c #586DE4",
"v c #4C66F7",
"b c #4561FD",
"n c #4B66FD",
"m c #4E69FF",
"M c #556CF1",
"N c #536CFB",
"B c #5D75FE",
"V c #6C7FEB",
"C c #6279F6",
"Z c #637BFD",
"A c #687FFF",
"S c #6E81EB",
"D c #7587EC",
"F c #7789EA",
"G c #7C8DEB",
"H c #6C82FE",
"J c #7084F4",
"K c #7B8DF3",
"L c #7186FD",
"P c #7589FD",
"I c #7A8DFB",
"U c #7E91FD",
"Y c #8593E2",
"T c #8896E5",
"R c #8897E8",
"E c #8C9BED",
"W c #8394F3",
"Q c #8798F3",
"! c #8D9CF2",
"~ c #8395FF",
"^ c #8B9DFE",
"/ c #909FF5",
"( c #92A1F6",
") c #95A5FD",
"_ c #98A7FF",
"` c #98A8FF",
/* pixels */
"                           :::       :=                         ",
"                           #::  =:                              ",
"                            ::=.=::#           @                ",
"                           #::#  :::=@        =                 ",
"                  =  :     ==     ::##=:::=   :                 ",
"              =:  :  #:           g>   =>::=       =            ",
"           @@ =:  :  @53       ==qB,#  *::::=      :=#          ",
"          == =::     -ZH    !  =::>::  b:::::=       #=@       :",
"     #  #7s  #pN   Ip: )f:=    = =:::uZ4  ::::::=     =::#      ",
"       =5Z    4LEE))^H!)~Nbr   @  :=:0    o:::=::=     =:       ",
"   @   :u      uI))))))_))(       #      @      ::#   Oo        ",
"   @@  =>      #; /))) !Y                        =:   @@        ",
"   =#  d        :  ))E  R            @   #   ::::::    #=       ",
"   =  jK           Q)   /                    ::=:=#     ==      ",
"      G          W4x    (  E                       # W   #  :=  ",
"        FQ      /Q     E)                           ,HE     ==  ",
"        7p      (                                   =aQ     ##  ",
"      #::=                                          +>A/  ##    ",
"     =:,>:=          :=                           (W =pPd:=     ",
"      =md:5V      !                               YU,::,>:    # ",
"       y7=-ST                                 ))   w>f7:::@  =: ",
"  @     @   /                                 /(   #>mu:=:=  :: ",
" @@        ((   7D   #                             =:::#  :  =: ",
" #:       !(     ^                             =:         :=  : ",
"  :=             _                              :       :=::=:: ",
"= =:# )      E^  /                                   E  ::::::: ",
": ::: )   Y R`H5                               =::     =:  =::  ",
"= ::: Qy  YE )Z:                                 ==    f7G  ==  ",
"  :::  4  Y) )^ZK                                @:#   bu    ## ",
"  ::      )) ))^)(                             @  =:<     =   ::",
"# ==  =   ))))Zu                              E = @5H4   =:=   :",
"##:=  :   ))_L,1I                             (K1:=p^a   :=@==::",
"  #=@#:   H`)v=1K(                             I1:>B`B   :  =:::",
"    =:=   tI)c = E                              =:k^_^   =  == :",
"     :     yL7  @                             U5:pI _(      ::::",
"  #   #::    >@                                2:67 (R  7  :::::",
"  #=  @::    :=                                 =>rEE -:pQ :::::",
"   :=  #      ::=                               :u^E Gi:p) ::: :",
"   =::=   E                                   !  b/  (m= P1:::::",
"    ::=@       :                              )     J_~756:::::=",
"    =:  #      :=                             ^    j^`_m::: ::= ",
" =   =  =::::                             #   F7  8U`)~j := =:  ",
" :      =un>O   6K                                v^R 4:::  :=  ",
" :     #:7f>@   3I                              +3P   :7u: ==   ",
" =     =::::-O                               ! $:y  F7:dm: :#   ",
"      @ @=  z5                           =:    Z    ^0::>:::    ",
"         #==                                   (   0~q::::::=   ",
"           =                                   )   2  =:::5-#   ",
"                                      h)! :   QI  E   =  pZ     ",
"      #   E @                       !ds(    l7Uf     @O  Uf     ",
"             #::=:                    S(   (Q%7:        KZn:@   ",
"             =:::=    #   @           /)RY(_)e:1=  #   9ukC::   ",
"             :=                      R)__)_)`LpHj     #:>M :::  ",
"             #>:      #      @       )`))))`))^)^M    ga: #@#:  ",
"       ==     =::@          =:  @   rbmU)())))!E)(   vZ6:=:     ",
"        ##     =:=O=:   #  :::= #    =:f) ))/   (`V  g7:=:      ",
":         @       #:=      :>>::=  !    H_`!    P^b::::=        ",
"           =:       #=      BB&=:       6b~  : #17>::::  #      ",
"            =        =:O    bb          ::u  :  :==:=:          ",
"                 #    #=    ::     =:@  @:=  =   X @            ",
"                            =::  =::::            #             ",
"                             ::=#4N,=            ::             ",
"                              ==  b,q                           ",
"                                  :>C                           "
};
