/* XPM */
static char *_ae6824df4df468abdba3a69d90437eaMiXWx4HiZrPg2BmQ[] = {
/* columns rows colors chars-per-pixel */
"64 64 215 2 ",
"   c #150101",
".  c #1B0101",
"X  c #240101",
"o  c #2C0101",
"O  c #230A05",
"+  c #2D0905",
"@  c #2F0C08",
"#  c #340101",
"$  c #3C0101",
"%  c #330B06",
"&  c #3C0B06",
"*  c #330F09",
"=  c #3A0E09",
"-  c #23130E",
";  c #35120C",
":  c #3D130D",
">  c #34180F",
",  c #3A180F",
"<  c #201711",
"1  c #271A13",
"2  c #2D1B13",
"3  c #251E19",
"4  c #2E1611",
"5  c #3C1C12",
"6  c #361B13",
"7  c #2E251D",
"8  c #2A2017",
"9  c #3D2216",
"0  c #34251A",
"q  c #3D251A",
"w  c #34291E",
"e  c #3C2C1D",
"r  c #3C2D22",
"t  c #362C23",
"y  c #3C3025",
"u  c #440101",
"i  c #4B0101",
"p  c #430A06",
"a  c #4A0906",
"s  c #450D09",
"d  c #4C0D09",
"f  c #520201",
"g  c #540A06",
"h  c #540E09",
"j  c #5D0A06",
"k  c #43140C",
"l  c #4B130C",
"z  c #4B190F",
"x  c #43190F",
"c  c #53150C",
"v  c #52190E",
"b  c #58180F",
"n  c #5D170F",
"m  c #441B12",
"M  c #4C1D13",
"N  c #511D14",
"B  c #5B1D13",
"V  c #61180C",
"C  c #651D16",
"Z  c #442215",
"A  c #4B2215",
"S  c #45251A",
"D  c #4C251A",
"F  c #442C1D",
"G  c #4B2B1C",
"H  c #532215",
"J  c #5A2316",
"K  c #53251A",
"L  c #5C2619",
"P  c #522C1C",
"I  c #5C2D1E",
"U  c #45341F",
"Y  c #4D331E",
"T  c #53311E",
"R  c #5A361F",
"E  c #632417",
"W  c #6B291D",
"Q  c #66291B",
"!  c #732D1E",
"~  c #772B19",
"^  c #64311E",
"/  c #7A331F",
"(  c #452E21",
")  c #4B2E21",
"_  c #532D20",
"`  c #5D2F21",
"'  c #443423",
"]  c #4B3523",
"[  c #4C3A25",
"{  c #433629",
"}  c #46392A",
"|  c #4D3C2A",
" . c #463826",
".. c #533423",
"X. c #5B3423",
"o. c #533C25",
"O. c #5B3C26",
"+. c #523E2A",
"@. c #5B3D2A",
"#. c #543628",
"$. c #7C2D22",
"%. c #633523",
"&. c #693826",
"*. c #603728",
"=. c #613D29",
"-. c #6A3925",
";. c #763D25",
":. c #713F28",
">. c #783627",
",. c #4E412E",
"<. c #564126",
"1. c #5A4226",
"2. c #55412C",
"3. c #5B442C",
"4. c #5E492D",
"5. c #4E4131",
"6. c #554432",
"7. c #5B4632",
"8. c #5D4933",
"9. c #5C4C3A",
"0. c #61462C",
"q. c #6A432D",
"w. c #634A2D",
"e. c #694D2E",
"r. c #74432C",
"t. c #714C2E",
"y. c #6C512E",
"u. c #634431",
"i. c #6A4532",
"p. c #664E36",
"a. c #634C33",
"s. c #684E32",
"d. c #694F35",
"f. c #6A4E33",
"g. c #614D39",
"h. c #634E39",
"j. c #6B4E3A",
"k. c #704730",
"l. c #724E33",
"z. c #7E4B37",
"x. c #665136",
"c. c #665135",
"v. c #6D5132",
"b. c #6A5136",
"n. c #6C5136",
"m. c #6B5134",
"M. c #675139",
"N. c #65513B",
"B. c #6A523A",
"V. c #6A543B",
"C. c #6E5439",
"Z. c #6E563D",
"A. c #6B543B",
"S. c #6F583E",
"D. c #735434",
"F. c #795636",
"G. c #775837",
"H. c #7B5A36",
"J. c #72563A",
"K. c #72563B",
"L. c #725A3F",
"P. c #765A3E",
"I. c #74593C",
"U. c #7A5C3C",
"Y. c #7D543D",
"T. c #645442",
"R. c #6B5641",
"E. c #6D5A43",
"W. c #655848",
"Q. c #6A5C4C",
"!. c #755B40",
"~. c #735B42",
"^. c #7B5E42",
"/. c #765F49",
"(. c #7C6143",
"). c #74614C",
"_. c #7C644B",
"`. c #6F6152",
"'. c #736656",
"]. c #736658",
"[. c #796650",
"{. c #8D2D1F",
"}. c #812C19",
"|. c #8B3324",
" X c #853B2A",
".X c #953A29",
"XX c #8A4E3A",
"oX c #824D37",
"OX c #984D36",
"+X c #805F3F",
"@X c #8F573C",
"#X c #975139",
"$X c #935641",
"%X c #955E44",
"&X c #AB5945",
"*X c #816444",
"=X c #84644C",
"-X c #866A4A",
";X c #896247",
":X c #976147",
">X c #9D6249",
",X c #94644A",
"<X c #976A53",
"1X c #A1674D",
"2X c #A47155",
"3X c #AB7355",
"4X c #A2775D",
"5X c #A86A55",
"6X c #AB7C63",
"7X c #A78268",
"8X c #B58669",
"9X c #B9886F",
"0X c #B89179",
"qX c #C0967F",
"wX c #BF9B82",
/* pixels */
"+.a.p.g.c.N.V.x.m.J.B.b.s.s.g.3.c.x.w.4.4.0.D.v.a.8.8.g.B.g.6.+.| a.N.a.g.N.A.b.n.J.B.f.b.a.a.7.f.p.a.4.4.w.D.f.w.7.9.g.N.g.7.+.",
"a.C.^.!.L.S.^.^.U.^.P.I.I.V.Z.f.J.G.C.s.f.f.H.U.n.8.S.Z.B.N.B.7.u.C.^.~.!.I.P.^.U.(.I.I.I.B.Z.f.J.J.n.s.n.n.H.U.C.a.Z.A.A.B.j.g.",
"a.N.E.K.N.V.V.(.I.I.V.C.B.g.B.s.y.y.s.w.a.a.B.D.p.2.a.0.w.a.c.1.8.N.I.I.N.x.S.~.I.P.V.S.B.g.B.s.v.e.e.e.a.8.n.C.p.<.a.0.4.u.p.4.",
"4.p.~.K.x.V.V.L.P.V.p.C.C.g.f.s.y.w.e.s.a.8.s.c.c.o.3.e.w.s.c.4.4.p.R.J.x.V.S.L.L.V.p.V.A.p.f.f.y.w.e.s.a.8.p.v.c.o.3.e.e.s.p.4.",
"4.p.V.V.a.a.8.N.V.g.a.N.B.4.4.4.y.w.w.c.7.6.<.w.w.1.w.w.0.w.w.1.4.x.A.V.c.g.a.x.N.N.c.c.x.4.4.4.e.e.w.w.a.6.<.w.w.1.w.w.0.w.e.4.",
"1.4.V.N.8.8.8.g.g.g.9.a.s.2.w.4.w.a.w.4.7.2.3.3.1.3.4.4.w.1.4.<.1.4.V.N.8.8.8.c.g.9.g.a.c.1.w.4.w.w.8.4.6.,.3.1.1.<.4.4.4.1.4.1.",
"1.1.c.8.6.,.6.9.9.9.8.4.4.<.<.4.8.8.7.9.6.5.3.[ o.[ 3.4.w.w.1.<.<.1.a.8.2.,.6.9.9.8.8.6.2.2.2.4.8.8.6.8.8.,.2.[ <.[ 3.3.w.w.1.1.",
"<.[ 2.,.' ' ,.2.6.2.| [ |  .o.1.3.,.| | 2.| <.Y [ [ o.<.w.w.1.R <.[ 2.,. .' ,.,.6.3.2.2.2.[ <.1.3.2.,.2.,.| <.[ [ [ o.1.w.w.1.o.",
"4.7.x.4.3.8.8.N.Z.h.a.c.a.8.V.E.T.9.,.,.8.c.G.0.w.w.D.G.F.D.e.o.1.4.N.4.2.a.8.x.S.N.g.,.,.8.N.E.T.9.6.| 7.f.F.0.w.w.v.G.D.y.e.1.",
"+.3.a.x.4.a.V.S.E.R.S.V.N.V.).).`.Q.9.6.g.V.D.f.D.y.D.c.0.e.1.<.2.3.p.8.4.a.N.S.E.R.N.,.} g.).).`.Q.9.6.g.C.D.e.D.t.D.y.w.e.0.o.",
" .<.o.| 3.3.s.N.N.A.V.V.V.x.E.Q.'.'.Q.6.8.N.V.w.w.w.e.w.w.w.3.[ | <.s.4.<.3.x.x.N.S.6. .2.N.!.Q.'.'.Q.6.9.h.C.w.w.w.w.w.4.s.1.<.",
" .o. .,.| 4.4.b.A.B.w.8.4.2.N.Q.`.].W.,.8.g.S.V.4.<.w.e.s.s.4. .[ <.e.3.,.3.4.m.S.4. .4.8.2.N.Q.`.'.W.| 8.g.~.C.w.<.y.e.c.8.3.[ ",
"Y Y ' e w +.w.c.s.a.2.2.4.2.N.E.T.W.6.' <.p.~.B.w.3.c.v.x.a.3.[ U [ 4.<.<.1.4.v.8. .+.2.7.2.N.E.T.W.6.{ 2.p.~.N.a.3.c.b.c.w.2.[ ",
"[ [ 3.<. .y a.I.s.0.4.7.8.2.8.N.g.N.9.U 3.p.~.b.y.w.V.S.N.c.4.,.[ [ 4.3.2.x.I.x.e 2.4.7.8.6.8.N.9.N.8. .3.f.~.f.c.a.b.I.V.c.4.2.",
"<.<.<.<.3.6.{ h.f.7.4.g.8.6.8.8.3.8.8.] +.s.j.4.e.2.8.N.a.4.2.o.<.<.1.<.2.c.g.,.2.7.8.g.8.6.8.8.6.a.4. .o.p.j.w.w.3.9.g.c.4.1.,.",
"U [ [ <.+.7.| | 7.7.7.8.7.[ 2.2.<.2.o.' [ <.7.4.2.| | 2.3.| o.| Y [ <.U 2.8.y ,.a.3.4.8.7.| 2.<.<.1.,.U [ <.7.3.4. .| 5.3.[ o. .",
"[ [ <.3.4.m.V.4.} 8.x.a.w.<.@.1.1.1.o.Y [ 2.a.+.3.+.+.+.+.3.o.o.[ [ 1.1.7.| [ f.V.a.x.a.c.1.1.4.1.1.o.Y o.3.0.+.1.+.2.+.+.+.o.o.",
"y.w.G.^._.-X-XU.N.| P.(.Y.n.e.D.y.D.e.w.f.I.(.f.J.I.I.S.C.f.f.y.e.e.D.K.8.8.(.U.*X).(.(.U.v.s.D.y.G.y.w.f.R.(.s.J.!.~.S.Z.n.v.f.",
"1.w.C.~._._._.U.^.| { j.f.0.0.f.e.y.e.8.8.R.~.x.R.~.N.R.Z.f.e.w.w.0.s.#.,.)._.^.(.N.R.~.L.x.w.y.w.y.w.8.8.R./.p.~.~.T.A.A.f.e.w.",
"1.4.c.~._.Q.S.(.^.g.{ r ..%.e.f.w.w.4.4.7.T.~.p.E.h.g.9.N.p.a.e.4.^ L Z 7.~.E.^.(.a.7.9.8.a.y.c.w.w.4.8.7.T.~.g.Z.N.N.9.N.p.e.e.",
"7.3.h.R.(.S.N.U.+XC.C.] H {.;.j.w.a.s.h.9.E.~.p.A.h.7.u.A.p.p.s.1.! {.S B.Z.N.^.(.C.J.S.c.4.c.D.w.w.a.c.9.E.!.p.A.V.9.8.A.c.a.s.",
"6.6.u.N.V.c.c.C.I.a.a. .m |.|.O.a.0.7.g.6.T.R.7.p.7.7.3.a.1...o.:. XM r j.3.3.K.U.8.8.N.a.4.w.s.c.4.7.c.6.N.E.0.a.8.8.6.a.a.4.3.",
"[ | 3.7.7.4.4.a.s.2.3.7.( l .X X1.8.6.9.6.| +.' +.+.7.3.7.M u K XXK 1 | 7.0.3.s.p.2.3.7.,.2.2.<.2.8.8.4.6.N.E.8.7.6.8.4.4.4.<.2.",
"o.+.+.[  .[  .1.4.2.2.[ S 4 W &X;X<.+.+.{ i.<X=X+. .#.o.[ Z L >.H 1 w [ | [ ' 3.w.2.o.+.<.,.,.,.<.2.,.,.2.8.C.0.<.+.1.[ [ ,.[ <.",
"7.8.4.0.7.4.3.f.U.F.w.o.+.| ; XX8XK.3.@.I 4XwX0Xj...1.@.] &.3X:.- t #.0.8.4.3.f.H.G.w.1.8.6.8.4.w.c.4.a.s.J.I.a.g.3.4.o.@.w.w.v.",
"6.6.g.f.7.3.3.s.F.r.e.0.g.6.( _ 6X7Xp.( R 8XqX9X+XD @.o.=.3X2Xq 3 | #.j.a.3.3.s.U.H.y.w.c.9.N.c.x.4.6.4.8.V.V.8.u.3.4.3.4.4.s.I.",
"6.7.9.7.7.+.[ 8.%.V f.a.8.6.#.6 =.4X1X=.P $X5X@X&.x O.q.,X3X@.3 y +.) 9.7.+. .0.G.U.S.a.8.9.9.N.8.8.4.c.4.4.a.a.a.8.g.] 3.4.a.N.",
"9.h.N.9.+.7.3.a.F.l.I.0.7.6.a.( 2 Q OX1XP k E b % = oX<X2Xi.7 r 6.g.@.g.6.6.3.a.G.(.U.4.8.9.N.V.4.c.c.x.4.4.a.w.2.| +.[ 4.3.a.V.",
"N.N.L.x.<.g.p.C.^.(.I.w.a.3.s.X.t O E 3Xz.z l d k L %X%Xi.8 r 7.a.j.~.N.7.8.p.A.(.(.U.w.c.8.V.C.4.m.D.m.8.w.e.e.@.3.7.e.1.1.f.K.",
"g.p.N.a.3.a.9.A.I.^.G.0.s.+.0.O.+.3 H @X:XH % p l ! @X..< t | p.7.7.p.4.4.a.8.j.C.(.G.w.w.4.c.m.4.4.w.c.a.w.e.e.f.n.n.1.o.4.p.C.",
"7.7.7.2.[ 3.3.u.e.C.s.0.4.3.4...#.6 S oX#XE B B b }.-.9 3 y @.@.+.3.2.+.[ 7.7.p.c.D.e.4.4.2.4.4.8.4.4.8.7.4.a.4.s.a.a.+.1.3.8.a.",
"| | 4.,.+.+...h H 4.0.1.@.[ o.Y ] 9 > ;..X{./ ~ ! ~ >.2 7  .+.G F +.3.2.[ 8.u.s.w.w.w.1.4.,.<.<.,.4.2.2.<.+.0.e.4.4.8.2.@.2.2.<.",
"1.c.S.S.R.~.j.B %.K.K.f.q.O.w.@.0.X.; ^  XM % p % M B 4 ) L 1.#.o.a.K.E.p.E.E.K.J.G.G.v.m.e.n.e.n.C.c.y.w.e.F.+Xl.n.V.E.~.C.p.7.",
"w.~.[.[.).).~.I.F.^.F.l.n.u.K.q.J g # H H + o n X m = > D N i.+.+.K././././.~.K.P.U.(.L.I.x.I.f.D.J.D.f.a.f.U.+XK.a.~.Z.N.N.K.p.",
"4.E._.).Q.).E.I.!.!.K.K.0.u.f.O.b f & : J z v ~ o @ + # d K 0.1...O.~./.E.~.R.K.^.L.I.I.b.g.Z.c.D.v.e.3.+.p.I.I.Z.7.f.f.a.s.C.0.",
"4.C.~.P.C.~.E.~./.f.f.I.u.7.0.R H f $ % % O + & . ; o i f g J T l B K.R.R.~.K.R.^.C.C.I.Z.a.b.c.y.e.1.4.6.p.B.D.J.4.4.e.e.f.J.4.",
"4.x.V.S.B.A.9.B.B.0.u.j.s.<.#.G c f u # o X . .   O # i i i H G p c f.j.p.j.g.j.N.c.x.C.N.4.1.w.e.y.e.c.w.8.3.w.y.4.4.w.4.w.c.w.",
"1.4.V.N.8.B.g.p.g...@.O.R Y T z a i u X X X o o . . $ i i s X.Y k a u.h.7.j.g.g.g.a.N.V.c.3.4.1.4.e.w.w.7.2.+.3.4.3.4.w.1.0.e.1.",
"<.<.4.7.| D ) 6.6.+.#.A Z Z x p u $ # X . . o o . X $ i i i l Z k p #.3.+.2.| 6.2.8.8.4.1.<.Y <.<.2.6.2.| | | +.3.2.<.4.w.w.w.1.",
"Y [  . .F * e [ | ] Z 9 , ; * & $ o o X . . X X X . # $ u i i k = * ( [ r ' ' [ ,.,.U <.U e U <.Y [ [ ,.} ' |  .[  .[ <.w.w.1.1.",
",.[ 7.+.| 3.| 7.7.<...G x : p u $ o # X .   o # o o $ i i f i l x : ) ] | +.| 7.u.<.2.4.1.[ 1.w.3.2.,. .,.} 7.6.4.4.4.y.c.e.0.1.",
",.2.7.2.7.9.9.N.a.3.4.P A k p $ $ o X X     X # # o u i i i i a = $ D ..@.6.6.T.g.4.w.w.w.1.4.w.w.a.7.} } } 5.W.S.4.s.w.4.w.0.1.",
"' [ 4.2.5.9.9.T.a.a.w.R A k $ # $ X X X .   . X o $ u $ u i i $ # $ p D | +.6.7.4.w.w.w.c.4.<.2.c.8.6.,.,.} 5.8.x.4.4.4.4.s.w.<.",
"[ [ w.<.,.9.8.9.V.c.1.D M = o $ $ # o X     . . o # # $ u i u $ $ $ M S ] 9.+.7.N.s.w.w.w.<.[ 4.g.g.9.,.,.5.8.9.s.3.w.s.s.p.a.2.",
"U U 1.[ 2.g.6.c.p.@.G M z = o # $ # X     . . . o $ u i i i u $ # o S Y [ 4.2.a.a.8.4.1.w.+.| 2.2.3.2. .,.5.9.c.e.4.e.c.p.p.s.<.",
"[ [ 1.1.8.V.C.m.h.7...D k $ $ $ u $ # X   . . X # $ u i i u i u = ; G G o.p.f.C.g.a.7.1.4.3.2.8.4.2.1.,.,.6.9.8.f.7.s.J.B.c.a.4.",
"1.<.<.<.8.c.c.E.j.g.0.@.@.m u u u u # . . . . o $ # $ # $ i i $ & Z G k P @.@.K.A.a.g.j.g.7.7.8.4.3.6.<.5.8.9.a.s.8.8.N.x.4.w.4.",
"[ U Y [ 3.8.7.C.=.+.@.u.7.m u u $ # # . . X X o $ o X X $ $ $ # # + % Z m _ 6.C.B.8.g.B.a.+.2.2.<.3.2. .,.5.9.8.4.+.,.7.4.2.2.2.",
"o.U <.1.s.u.s.e.f.8.i.u.@.) = u $ $ # o X o o o # o X . # # $ $ * : A M v K O.w.0.u.j.j.s.o.o.1.1.1.3.<.| 2.7.3.3.| ,.2.3.2.<.<.",
"y.e.D.U.*X*XU.I.^.~./.^.K.X.a f f i $ u u # # # u $ X o $ u i f c P ` j W :.&.e.k.*.K./.I.f.1.e.y.y.a.c.g.g.R.g.b.a.c.N.N.a.e.v.",
"4.4.x.S._._.f.I.K.7.T.R.j.D p i i u $ u $ $ $ u i $ o o $ u i f i k D g C i.*.&.O.z _ ` i.g.3.7.1.4.4.8.7.9.N.g.V.x.a.N.N.4.w.w.",
"w.4.8.).=XK._ G.i.s M T.j._ a f i u u u $ $ i i i $ o # u $ i i a k ) B W *._ ^ B s i g X.N.g.j.4.4.2.8.9.9.R.u.b.8.8.9.N.a.e.e.",
"a.6.7.E.(.I.a.I.F.N ) #._ k i f i i i u u u i i i u # o u u u u a m ] X.%.=...%.^ d i a _ +.6.g.c.4.4.8.N.N.E.p.V.a.9.8.V.9.8.s.",
"6.2.8.p.A.p.a.b.D.#.) D k p a i i u u i # $ u $ u u # o $ $ $ & p m #.#.X.I #.X.` M u a s m ) @.4.2.2.9.6.9.p.3.w.8.6.7.9.9.9.6.",
"| | 6.g.g.u._ =.u.#. .m m x & u i u u $ # $ u $ u u # o u $ $ = % * ) ......G X.K m 5 ) D Z ' +.6.,.,.2.5.6.8.4.4.2.6.9.8.6.| +.",
"' F F  .| [ F +.4.[ ) F q = # u u $ $ # o $ i i u $ o o # # # o % + > ( ' F F #.@.F F ] ' ( ' | ,.,.U [  .2.8.4.2.| | | } |  .[ ",
"@.= k 3.u.3.1.u.F.e.R S D u $ f f f u i i u u $ u u o X # $ # k = 5 : _ #.3.#.0.t.t.0.Y ..] [ w.s.7.3.3.4.8.e.o.<.<.+.o.o.3.7.a.",
"6.5 D p.4.3.+.3.F.t.0...T x p f f i u u i u $ u u $ # # $ $ p M 5 5 m N #.+.o.O.D.F.0.O.1...o.s.p.4.<.3.4.4.4.3.<.+.@.1.3.3.7.g.",
"9.| +.9.a.] ( @.D.%.I T o...z i i i i i f u u i a a $ # i i a ) ) ( ) ) ..[ ( @.D.I.c.....o.4.s.a.4.2.4.s.+.<.8.7.7.7.| 1.3.8.a.",
"T.9.9.8.6.6.+.3.l.q.q...1.D h f f f i f i k u i u u $ u i u l @.#.+.6.@.S G #.o.D.H.D.3.1.4.w.V.N.g.u.p.s.<.4.w.3.+.| o.1.3.4.N.",
"N.g.R.g.2.7.g.0.l.Y.G.1.=.l f f f f f f a z i f u u u u s p a ` @.#.p.g.#.D @.@.D.U.D.1.w.4.g.E.A.A.B.p.a.3.w.w.3.+.+.1.@.@.0.C.",
"g.7.N.8.3.a.7.7.f.D.e.@.R A c h c g f i f f f f i i i $ $ i i f g D 7.3.<.@.) @.i.H.K.@.w.8.u.p.R.p.g.7.a.w.w.w.w.g.3.[ [ 4.a.x.",
"7.3.3. .S 3.9.u.0.I H H H z d g h i i i i i f f f f i u i i i i i k o.'  .3.....0.v.e.O.X.X.H l N @.8.4.8.w.e.4.s.a.8.+.1.w.8.a.",
"[  .+.q 5 +.4.1.D s u u u $ u u u i u u u i f f i i i u i u i u $ 5 [ F F 3.+.#...1.O...s m ..M m 3.3.3.4.4.c.m.a.w.s.0.1.4.3.3."
};
